<?xml version="1.0" encoding="utf-8"?>
<!-- Generator: Adobe Illustrator 20.1.0, SVG Export Plug-In . SVG Version: 6.00 Build 0)  -->
<svg version="1.1" id="Слой_1" xmlns="http://www.w3.org/2000/svg" xmlns:xlink="http://www.w3.org/1999/xlink" x="0px" y="0px"
	 viewBox="0 0 1134.3 595.3" style="enable-background:new 0 0 1134.3 595.3;" xml:space="preserve">
<g>
	
		<rect x="-49.7" y="50.8" transform="matrix(-1.836970e-16 1 -1 -1.836970e-16 545.5319 49.7481)" style="fill:#24282C;" width="595.3" height="493.7"/>
	<g>
		<circle style="fill:#FFFFFF;" cx="247.9" cy="294.8" r="170.4"/>
		<g id="lion">
			<g>
				<polygon style="fill:#17191A;" points="254.9,326.8 247.9,328.4 246.7,327.1 246.7,296.1 247.9,295.3 258.1,292 265.8,292 
					265.8,296.1 270.8,294.6 255.9,307.8 256.1,299.7 252.4,310.2 250.1,312.6 250,321.8 255.8,321.8 270.8,328.4 277.5,328.9 
					269,331.6 				"/>
				<polygon style="fill:#17191A;" points="265.8,289.2 261.9,284.7 260.4,269.6 				"/>
				<polygon style="fill:#17191A;" points="284.5,257.6 272,257.6 267.3,252.9 268.4,264.2 261.9,250.6 272,241.4 288.1,241.4 
					299.4,248.5 293,248.5 				"/>
				<polygon style="fill:#17191A;" points="270.4,427.8 247.9,456.1 238.9,427.9 243.5,351.4 247.9,351.4 268.9,351.4 278.9,341.1 
					278.6,328.9 287.7,322.1 288.2,301 271.1,268.5 299.1,301.8 311.6,286 311.5,241.9 298.9,221.9 309.9,222.5 269.5,200.3 
					252,206.8 247.9,231.8 246.6,219 245.3,147.6 247.9,147.6 262.6,147.6 256.4,162.3 273,147.6 302.6,147.6 323.2,168.4 
					284.9,167.8 334.1,177.5 357.2,195.5 356.7,231.3 344,221 365.9,260.4 365.9,286.6 338.2,262.5 365.9,303.5 365.9,337.4 
					355.7,349.2 333.6,311.7 349.1,355.8 307.7,412.6 289.5,382.7 297.9,415.8 276.7,425.4 262.4,405.1 				"/>
			</g>
			<g>
				<polygon style="fill:#272A2E;" points="240.9,326.8 247.9,328.4 247.9,295.3 237.6,292 230,292 230,296.1 225,294.6 
					239.9,307.8 239.6,299.7 243.4,310.2 245.8,312.6 245.8,321.8 240,321.8 225,328.4 218.3,328.9 226.8,331.6 				"/>
				<polygon style="fill:#272A2E;" points="230,289.2 233.9,284.7 235.4,269.6 				"/>
				<polygon style="fill:#272A2E;" points="211.4,257.6 223.9,257.6 228.5,252.9 227.4,264.2 233.9,250.6 223.9,241.4 207.7,241.4 
					196.4,248.5 202.8,248.5 				"/>
				<polygon style="fill:#272A2E;" points="225.4,427.8 247.9,456.1 247.9,351.4 227,351.4 217,341.1 217.2,328.9 208,322.1 
					207.7,301 224.7,268.5 196.7,301.8 184.2,286 184.3,241.9 197,221.9 185.9,222.5 226.4,200.3 243.9,206.8 247.9,231.8 
					247.9,147.6 233.2,147.6 239.5,162.3 222.8,147.6 193.2,147.6 172.7,168.4 210.9,167.8 161.7,177.5 138.6,195.5 139.1,231.3 
					151.8,221 129.8,260.4 129.8,286.6 157.6,262.5 129.8,303.5 129.8,337.4 140.2,349.2 162.2,311.7 146.7,355.8 188.1,412.6 
					206.4,382.7 197.9,415.8 219,425.4 233.4,405.1 				"/>
			</g>
		</g>
	</g>
</g>
<g style="display:none;">
	
		<rect x="-49.7" y="50.8" transform="matrix(-1.836970e-16 1 -1 -1.836970e-16 545.5319 49.7481)" style="display:inline;fill:#FFFFFF;" width="595.3" height="493.7"/>
	<g id="lion_1_" style="display:inline;">
		<g>
			<polygon style="fill:#17191A;" points="254.9,326.8 247.9,328.4 246.7,327.1 246.7,296.1 247.9,295.3 258.1,292 265.8,292 
				265.8,296.1 270.8,294.6 255.9,307.8 256.1,299.7 252.4,310.2 250.1,312.6 250,321.8 255.8,321.8 270.8,328.4 277.5,328.9 
				269,331.6 			"/>
			<polygon style="fill:#17191A;" points="265.8,289.2 261.9,284.7 260.4,269.6 			"/>
			<polygon style="fill:#17191A;" points="284.5,257.6 272,257.6 267.3,252.9 268.4,264.2 261.9,250.6 272,241.4 288.1,241.4 
				299.4,248.5 293,248.5 			"/>
			<polygon style="fill:#17191A;" points="270.4,427.8 247.9,456.1 238.9,427.9 243.5,351.4 247.9,351.4 268.9,351.4 278.9,341.1 
				278.6,328.9 287.7,322.1 288.2,301 271.1,268.5 299.1,301.8 311.6,286 311.5,241.9 298.9,221.9 309.9,222.5 269.5,200.3 
				252,206.8 247.9,231.8 246.6,219 245.3,147.6 247.9,147.6 262.6,147.6 256.4,162.3 273,147.6 302.6,147.6 323.2,168.4 
				284.9,167.8 334.1,177.5 357.2,195.5 356.7,231.3 344,221 365.9,260.4 365.9,286.6 338.2,262.5 365.9,303.5 365.9,337.4 
				355.7,349.2 333.6,311.7 349.1,355.8 307.7,412.6 289.5,382.7 297.9,415.8 276.7,425.4 262.4,405.1 			"/>
		</g>
		<g>
			<polygon style="fill:#272A2E;" points="240.9,326.8 247.9,328.4 247.9,295.3 237.6,292 230,292 230,296.1 225,294.6 239.9,307.8 
				239.6,299.7 243.4,310.2 245.8,312.6 245.8,321.8 240,321.8 225,328.4 218.3,328.9 226.8,331.6 			"/>
			<polygon style="fill:#272A2E;" points="230,289.2 233.9,284.7 235.4,269.6 			"/>
			<polygon style="fill:#272A2E;" points="211.4,257.6 223.9,257.6 228.5,252.9 227.4,264.2 233.9,250.6 223.9,241.4 207.7,241.4 
				196.4,248.5 202.8,248.5 			"/>
			<polygon style="fill:#272A2E;" points="225.4,427.8 247.9,456.1 247.9,351.4 227,351.4 217,341.1 217.2,328.9 208,322.1 
				207.7,301 224.7,268.5 196.7,301.8 184.2,286 184.3,241.9 197,221.9 185.9,222.5 226.4,200.3 243.9,206.8 247.9,231.8 
				247.9,147.6 233.2,147.6 239.5,162.3 222.8,147.6 193.2,147.6 172.7,168.4 210.9,167.8 161.7,177.5 138.6,195.5 139.1,231.3 
				151.8,221 129.8,260.4 129.8,286.6 157.6,262.5 129.8,303.5 129.8,337.4 140.2,349.2 162.2,311.7 146.7,355.8 188.1,412.6 
				206.4,382.7 197.9,415.8 219,425.4 233.4,405.1 			"/>
		</g>
	</g>
</g>
<g style="display:none;">
	
		<rect x="515.9" y="-22.8" transform="matrix(-1.836970e-16 1 -1 -1.836970e-16 1111.1633 -515.8834)" style="display:inline;fill:#17181A;" width="595.3" height="640.9"/>
	<g style="display:inline;">
		<g>
			<g>
				<path style="fill:#17191A;" d="M604,366.9c-2.1,0-3.9-0.3-5.5-1c-1.6-0.7-2.9-1.6-4-2.8c-1.1-1.2-1.9-2.6-2.4-4.3
					c-0.5-1.7-0.8-3.5-0.8-5.5s0.3-3.8,0.9-5.5c0.6-1.7,1.4-3.1,2.5-4.3c1.1-1.2,2.4-2.2,3.9-2.8c1.5-0.7,3.3-1,5.2-1
					c1.2,0,2.3,0.1,3.5,0.3c1.2,0.2,2.3,0.5,3.4,0.9l-1.1,3.9c-0.7-0.3-1.5-0.6-2.4-0.8c-0.9-0.2-1.9-0.3-2.9-0.3
					c-2.6,0-4.6,0.8-6,2.5c-1.4,1.6-2.1,4-2.1,7.1c0,1.4,0.2,2.7,0.5,3.9c0.3,1.2,0.8,2.2,1.5,3c0.7,0.8,1.6,1.5,2.6,1.9
					c1.1,0.5,2.4,0.7,3.9,0.7c1.2,0,2.4-0.1,3.4-0.3c1-0.2,1.8-0.5,2.4-0.8l0.6,3.9c-0.3,0.2-0.6,0.3-1.1,0.5
					c-0.5,0.1-1.1,0.3-1.7,0.4c-0.6,0.1-1.3,0.2-2,0.3C605.3,366.8,604.6,366.9,604,366.9z"/>
				<path style="fill:#17191A;" d="M630.5,339.7c0.4,0,0.9,0,1.4,0.1c0.5,0,1,0.1,1.5,0.2c0.5,0.1,1,0.2,1.4,0.3
					c0.4,0.1,0.7,0.2,0.9,0.2l-0.8,4.1c-0.4-0.1-1-0.3-1.8-0.5c-0.8-0.2-1.9-0.3-3.3-0.3c-0.9,0-1.7,0.1-2.6,0.3
					c-0.9,0.2-1.4,0.3-1.7,0.4v21.8h-4.6v-24.9c1.1-0.4,2.5-0.8,4.1-1.1C626.7,339.9,628.5,339.7,630.5,339.7z"/>
				<path style="fill:#17191A;" d="M643.8,353.3c0-2.3,0.3-4.3,1-6c0.7-1.7,1.6-3.1,2.7-4.3c1.1-1.1,2.4-2,3.8-2.6
					c1.4-0.6,2.9-0.8,4.4-0.8c3.5,0,6.2,1.1,8.1,3.3c1.9,2.2,2.8,5.5,2.8,10c0,0.2,0,0.5,0,0.8s0,0.6,0,0.9h-17.8
					c0.2,2.7,1,4.8,2.4,6.2c1.4,1.4,3.5,2.1,6.4,2.1c1.6,0,3-0.1,4.1-0.4c1.1-0.3,2-0.6,2.5-0.8l0.7,3.9c-0.6,0.3-1.6,0.6-3,0.9
					c-1.4,0.3-3,0.5-4.8,0.5c-2.3,0-4.2-0.3-5.9-1c-1.6-0.7-3-1.6-4.1-2.8c-1.1-1.2-1.9-2.6-2.4-4.3
					C644,357.1,643.8,355.3,643.8,353.3z M661.6,350.8c0-2.1-0.5-3.8-1.6-5.2c-1.1-1.3-2.6-2-4.5-2c-1.1,0-2,0.2-2.8,0.6
					c-0.8,0.4-1.5,1-2.1,1.6c-0.6,0.7-1,1.4-1.3,2.3c-0.3,0.9-0.5,1.8-0.6,2.7H661.6z"/>
				<path style="fill:#17191A;" d="M686.6,339.6c1.9,0,3.4,0.2,4.7,0.7c1.3,0.5,2.3,1.2,3.1,2.1c0.8,0.9,1.3,1.9,1.7,3.2
					c0.3,1.2,0.5,2.6,0.5,4v16.3c-0.4,0.1-1,0.2-1.7,0.3c-0.7,0.1-1.5,0.2-2.4,0.3c-0.9,0.1-1.9,0.2-2.9,0.3c-1,0.1-2.1,0.1-3.1,0.1
					c-1.5,0-2.8-0.1-4-0.4c-1.2-0.3-2.3-0.8-3.2-1.4c-0.9-0.6-1.6-1.5-2.1-2.6s-0.8-2.3-0.8-3.8c0-1.4,0.3-2.7,0.9-3.7
					c0.6-1,1.4-1.9,2.4-2.5c1-0.6,2.2-1.1,3.5-1.4c1.3-0.3,2.7-0.5,4.2-0.5c0.5,0,0.9,0,1.4,0.1c0.5,0,1,0.1,1.4,0.2
					c0.4,0.1,0.8,0.2,1.2,0.2c0.3,0.1,0.6,0.1,0.7,0.2v-1.3c0-0.8-0.1-1.5-0.3-2.3c-0.2-0.8-0.5-1.4-0.9-2c-0.4-0.6-1-1.1-1.8-1.4
					s-1.7-0.5-2.9-0.5c-1.5,0-2.9,0.1-4,0.3c-1.1,0.2-2,0.4-2.6,0.7l-0.5-3.8c0.6-0.3,1.6-0.5,3-0.8S684.9,339.6,686.6,339.6z
					 M687,362.9c1.1,0,2.1,0,2.9-0.1c0.9,0,1.6-0.1,2.1-0.3v-7.8c-0.3-0.2-0.9-0.3-1.6-0.4s-1.7-0.2-2.7-0.2c-0.7,0-1.4,0.1-2.2,0.2
					c-0.8,0.1-1.5,0.3-2.1,0.6s-1.2,0.8-1.6,1.3c-0.4,0.5-0.6,1.3-0.6,2.2c0,1.7,0.5,2.8,1.6,3.5C683.7,362.6,685.1,362.9,687,362.9
					z"/>
				<path style="fill:#17191A;" d="M713.6,340.3h9.8v3.9h-9.8v12c0,1.3,0.1,2.4,0.3,3.2s0.5,1.5,0.9,2c0.4,0.5,0.9,0.8,1.5,1
					c0.6,0.2,1.3,0.3,2.1,0.3c1.4,0,2.5-0.2,3.4-0.5c0.8-0.3,1.4-0.5,1.8-0.7l0.9,3.9c-0.5,0.2-1.3,0.5-2.5,0.9
					c-1.2,0.3-2.5,0.5-4,0.5c-1.8,0-3.2-0.2-4.4-0.7c-1.1-0.5-2.1-1.1-2.8-2c-0.7-0.9-1.2-2-1.5-3.3s-0.4-2.8-0.4-4.6V333l4.7-0.8
					V340.3z"/>
				<path style="fill:#17191A;" d="M736.7,335.6c-0.8,0-1.5-0.3-2.1-0.8s-0.9-1.3-0.9-2.2s0.3-1.7,0.9-2.2c0.6-0.6,1.3-0.8,2.1-0.8
					s1.5,0.3,2.1,0.8c0.6,0.5,0.9,1.3,0.9,2.2s-0.3,1.7-0.9,2.2S737.5,335.6,736.7,335.6z M739,366.3h-4.7v-26h4.7V366.3z"/>
				<path style="fill:#17191A;" d="M772.3,340.3c-1.3,4.9-2.8,9.5-4.6,14s-3.4,8.5-5.1,12h-4.2c-1.6-3.5-3.3-7.5-5.1-12
					s-3.3-9.1-4.6-14h5c0.4,1.6,0.9,3.4,1.4,5.2c0.5,1.8,1.1,3.7,1.8,5.5c0.6,1.8,1.2,3.6,1.9,5.3c0.6,1.7,1.2,3.2,1.8,4.5
					c0.6-1.3,1.2-2.8,1.8-4.5c0.6-1.7,1.3-3.5,1.9-5.3c0.6-1.8,1.2-3.7,1.8-5.5s1-3.6,1.4-5.2H772.3z"/>
				<path style="fill:#17191A;" d="M780,353.3c0-2.3,0.3-4.3,1-6s1.6-3.1,2.7-4.3s2.4-2,3.8-2.6c1.4-0.6,2.9-0.8,4.4-0.8
					c3.5,0,6.2,1.1,8,3.3c1.9,2.2,2.8,5.5,2.8,10c0,0.2,0,0.5,0,0.8s0,0.6,0,0.9h-17.8c0.2,2.7,1,4.8,2.3,6.2
					c1.4,1.4,3.5,2.1,6.4,2.1c1.6,0,3-0.1,4.1-0.4c1.1-0.3,2-0.6,2.5-0.8l0.7,3.9c-0.6,0.3-1.6,0.6-3,0.9c-1.4,0.3-3,0.5-4.8,0.5
					c-2.3,0-4.2-0.3-5.9-1c-1.7-0.7-3-1.6-4.1-2.8c-1.1-1.2-1.9-2.6-2.4-4.3C780.2,357.1,780,355.3,780,353.3z M797.8,350.8
					c0-2.1-0.5-3.8-1.6-5.2c-1.1-1.3-2.6-2-4.5-2c-1.1,0-2,0.2-2.8,0.6c-0.8,0.4-1.5,1-2.1,1.6c-0.6,0.7-1,1.4-1.3,2.3
					c-0.3,0.9-0.5,1.8-0.6,2.7H797.8z"/>
				<path style="fill:#17191A;" d="M837,362.9c1.9,0,3.3-0.3,4.2-0.8c0.9-0.5,1.4-1.3,1.4-2.4c0-1.1-0.5-2-1.4-2.7
					c-0.9-0.7-2.4-1.4-4.4-2.3c-1-0.4-2-0.8-2.9-1.2c-0.9-0.4-1.7-0.9-2.4-1.5c-0.7-0.6-1.2-1.3-1.6-2.1c-0.4-0.8-0.6-1.8-0.6-2.9
					c0-2.3,0.8-4.1,2.5-5.5s4-2,7-2c0.7,0,1.5,0,2.2,0.1c0.7,0.1,1.4,0.2,2,0.3c0.6,0.1,1.2,0.2,1.7,0.4c0.5,0.1,0.9,0.3,1.1,0.3
					l-0.8,4c-0.5-0.3-1.3-0.5-2.4-0.8c-1.1-0.3-2.3-0.4-3.8-0.4c-1.3,0-2.4,0.3-3.4,0.8c-1,0.5-1.5,1.3-1.5,2.4
					c0,0.6,0.1,1.1,0.3,1.5c0.2,0.4,0.5,0.8,1,1.2s1,0.7,1.7,1s1.5,0.6,2.4,0.9c1.2,0.5,2.3,0.9,3.3,1.4c1,0.5,1.8,1,2.5,1.6
					c0.7,0.6,1.2,1.3,1.6,2.2c0.4,0.9,0.6,1.9,0.6,3.1c0,2.4-0.9,4.2-2.7,5.5s-4.3,1.8-7.6,1.8c-2.3,0-4.1-0.2-5.4-0.6
					s-2.2-0.7-2.7-0.9l0.9-4c0.5,0.2,1.4,0.5,2.5,0.9C833.5,362.7,835,362.9,837,362.9z"/>
				<path style="fill:#17191A;" d="M862.6,340.3h9.8v3.9h-9.8v12c0,1.3,0.1,2.4,0.3,3.2s0.5,1.5,0.9,2c0.4,0.5,0.9,0.8,1.5,1
					c0.6,0.2,1.3,0.3,2.1,0.3c1.4,0,2.5-0.2,3.4-0.5c0.8-0.3,1.4-0.5,1.8-0.7l0.9,3.9c-0.5,0.2-1.3,0.5-2.5,0.9
					c-1.2,0.3-2.5,0.5-4,0.5c-1.8,0-3.2-0.2-4.4-0.7c-1.1-0.5-2.1-1.1-2.8-2c-0.7-0.9-1.2-2-1.5-3.3s-0.4-2.8-0.4-4.6V333l4.7-0.8
					V340.3z"/>
				<path style="fill:#17191A;" d="M904,365.5c-1.1,0.3-2.5,0.5-4.2,0.8s-3.8,0.4-6.1,0.4c-2,0-3.7-0.3-5-0.9
					c-1.4-0.6-2.5-1.4-3.3-2.5c-0.8-1.1-1.4-2.3-1.8-3.8c-0.4-1.4-0.5-3.1-0.5-4.8v-14.6h4.7v13.6c0,3.2,0.5,5.4,1.5,6.8s2.7,2,5,2
					c0.5,0,1,0,1.5,0s1-0.1,1.5-0.1c0.5-0.1,0.9-0.1,1.3-0.2c0.4-0.1,0.7-0.1,0.8-0.2v-21.9h4.7V365.5z"/>
				<path style="fill:#17191A;" d="M933.8,328.3l4.7-0.8v38.1c-1.1,0.3-2.4,0.6-4.1,0.9c-1.7,0.3-3.6,0.4-5.8,0.4
					c-2,0-3.8-0.3-5.4-0.9c-1.6-0.6-3-1.5-4.1-2.7c-1.1-1.2-2-2.6-2.6-4.3c-0.6-1.7-0.9-3.6-0.9-5.7c0-2,0.3-3.8,0.8-5.5
					c0.5-1.7,1.3-3.1,2.3-4.3c1-1.2,2.2-2.1,3.7-2.8c1.4-0.7,3.1-1,5-1c1.5,0,2.8,0.2,4,0.6c1.2,0.4,2,0.8,2.6,1.2V328.3z
					 M933.8,345.8c-0.6-0.5-1.4-0.9-2.5-1.3s-2.2-0.7-3.5-0.7c-1.3,0-2.5,0.2-3.4,0.7c-1,0.5-1.7,1.2-2.3,2c-0.6,0.8-1,1.9-1.3,3
					s-0.4,2.4-0.4,3.8c0,3,0.8,5.4,2.3,7c1.5,1.6,3.5,2.5,6,2.5c1.3,0,2.3-0.1,3.2-0.2c0.8-0.1,1.5-0.2,2-0.4V345.8z"/>
				<path style="fill:#17191A;" d="M953.8,335.6c-0.8,0-1.5-0.3-2.1-0.8s-0.9-1.3-0.9-2.2s0.3-1.7,0.9-2.2c0.6-0.6,1.3-0.8,2.1-0.8
					s1.5,0.3,2.1,0.8c0.6,0.5,0.9,1.3,0.9,2.2s-0.3,1.7-0.9,2.2S954.6,335.6,953.8,335.6z M956.1,366.3h-4.7v-26h4.7V366.3z"/>
				<path style="fill:#17191A;" d="M992.1,353.3c0,2.1-0.3,3.9-0.9,5.6c-0.6,1.7-1.4,3.1-2.5,4.3c-1.1,1.2-2.4,2.1-3.9,2.8
					c-1.5,0.7-3.1,1-4.9,1c-1.8,0-3.4-0.3-4.9-1c-1.5-0.6-2.8-1.6-3.9-2.8c-1.1-1.2-1.9-2.6-2.5-4.3c-0.6-1.7-0.9-3.5-0.9-5.6
					c0-2,0.3-3.9,0.9-5.6c0.6-1.7,1.4-3.1,2.5-4.3s2.4-2.1,3.9-2.8s3.1-1,4.9-1c1.8,0,3.4,0.3,4.9,1s2.8,1.6,3.9,2.8
					c1.1,1.2,1.9,2.6,2.5,4.3C991.8,349.4,992.1,351.2,992.1,353.3z M987.2,353.3c0-2.9-0.7-5.3-2-7c-1.3-1.7-3.1-2.6-5.4-2.6
					c-2.3,0-4.1,0.9-5.4,2.6c-1.3,1.7-2,4-2,7s0.7,5.3,2,7c1.3,1.7,3.1,2.6,5.4,2.6c2.3,0,4.1-0.9,5.4-2.6
					C986.6,358.5,987.2,356.2,987.2,353.3z"/>
			</g>
			<g>
				<path style="fill:#17191A;" d="M632.8,323.6c-2.4-6.2-5-13.4-7.7-21.4c-2.7-8-5.2-16.4-7.5-25c-2.3,8.7-4.7,17-7.4,25
					c-2.7,8-5.2,15.1-7.7,21.4H592c-4-8.9-7.9-19.1-11.7-30.5c-3.8-11.4-7.4-23.8-10.8-37h13c0.9,4.1,1.9,8.5,3.1,13.3
					c1.2,4.8,2.5,9.5,3.8,14.3c1.3,4.8,2.8,9.4,4.2,13.8c1.5,4.4,2.9,8.3,4.2,11.6c1.5-4.1,2.9-8.4,4.4-12.9
					c1.4-4.5,2.8-9.1,4.1-13.8c1.3-4.6,2.5-9.2,3.7-13.6c1.2-4.5,2.2-8.6,3.1-12.5h10c0.8,3.9,1.7,8.1,2.9,12.5
					c1.1,4.5,2.3,9,3.6,13.6c1.3,4.6,2.7,9.2,4.1,13.8c1.4,4.5,2.9,8.9,4.4,12.9c1.3-3.3,2.7-7.1,4.1-11.6c1.4-4.4,2.8-9,4.2-13.8
					c1.4-4.8,2.7-9.5,3.9-14.3c1.2-4.8,2.3-9.2,3.1-13.3h12.5c-3.4,13.3-7,25.6-10.8,37c-3.8,11.4-7.7,21.6-11.7,30.5H632.8z"/>
				<path style="fill:#17191A;" d="M674.8,290c0-6,0.9-11.2,2.6-15.7c1.7-4.5,4-8.2,6.9-11.1c2.9-2.9,6.2-5.2,9.9-6.6
					c3.7-1.5,7.5-2.2,11.4-2.2c9.1,0,16.1,2.8,20.9,8.5c4.9,5.7,7.3,14.3,7.3,25.9c0,0.5,0,1.2,0,2c0,0.8,0,1.6-0.1,2.3h-46.3
					c0.5,7,2.6,12.3,6.1,16c3.6,3.6,9.1,5.5,16.6,5.5c4.2,0,7.8-0.4,10.7-1.1c2.9-0.7,5.1-1.5,6.6-2.1l1.7,10.1
					c-1.5,0.8-4.1,1.6-7.7,2.5s-7.9,1.3-12.5,1.3c-5.9,0-11-0.9-15.3-2.7c-4.3-1.8-7.8-4.2-10.6-7.3c-2.8-3.1-4.8-6.8-6.2-11.1
					C675.5,299.8,674.8,295.1,674.8,290z M721.2,283.3c0.1-5.5-1.3-9.9-4.1-13.5c-2.8-3.5-6.7-5.3-11.6-5.3c-2.8,0-5.2,0.5-7.3,1.6
					c-2.1,1.1-3.9,2.5-5.4,4.2c-1.5,1.7-2.6,3.7-3.4,6c-0.8,2.3-1.4,4.6-1.6,6.9H721.2z"/>
				<path style="fill:#17191A;" d="M763.3,259c1.5-1,3.7-1.9,6.7-3s6.4-1.6,10.3-1.6c4.9,0,9.2,0.9,12.9,2.6c3.8,1.7,7,4.2,9.6,7.3
					c2.6,3.1,4.6,6.8,5.9,11.2c1.3,4.3,2,9.1,2,14.3c0,5.5-0.8,10.4-2.4,14.8c-1.6,4.4-3.9,8.1-6.8,11.1c-2.9,3-6.5,5.4-10.7,7
					s-8.8,2.5-14,2.5c-5.6,0-10.6-0.4-14.9-1.2c-4.3-0.8-7.9-1.6-10.7-2.3v-96.8l12.1-2.1V259z M763.3,313.1c1.2,0.3,2.9,0.7,5.1,1
					c2.2,0.3,5,0.5,8.3,0.5c6.5,0,11.7-2.1,15.6-6.4s5.8-10.4,5.8-18.3c0-3.5-0.3-6.7-1-9.8c-0.7-3-1.8-5.7-3.4-7.9
					c-1.6-2.2-3.6-3.9-6-5.2c-2.5-1.3-5.4-1.9-8.9-1.9c-3.3,0-6.3,0.6-9.1,1.7c-2.8,1.1-4.9,2.3-6.4,3.5V313.1z"/>
				<path style="fill:#17191A;" d="M852.3,286.4c2.6,2,5.4,4.5,8.3,7.4c2.9,2.9,5.8,6.1,8.6,9.6c2.8,3.4,5.5,6.9,8,10.4
					c2.5,3.5,4.6,6.8,6.4,9.8h-14.2c-1.8-3-3.9-6.1-6.3-9.3c-2.4-3.2-4.9-6.2-7.5-9.1c-2.6-2.9-5.2-5.6-7.9-8
					c-2.7-2.4-5.2-4.5-7.7-6.1v32.5h-12.1v-98.8l12.1-2.1v61.6c2.1-2.1,4.4-4.4,6.9-6.9c2.5-2.5,5-5.1,7.4-7.7
					c2.4-2.6,4.7-5.1,6.9-7.5c2.2-2.4,4-4.5,5.6-6.3h14.2c-2,2.2-4.2,4.5-6.5,7.1c-2.3,2.6-4.8,5.2-7.3,7.9c-2.5,2.6-5,5.3-7.6,7.9
					C856.9,281.6,854.5,284.1,852.3,286.4z"/>
				<path style="fill:#17191A;" d="M901.7,243.8c-2.2,0-4-0.7-5.5-2.1c-1.5-1.4-2.3-3.4-2.3-5.8c0-2.4,0.8-4.4,2.3-5.8
					c1.5-1.4,3.4-2.1,5.5-2.1s4,0.7,5.5,2.1c1.5,1.4,2.3,3.4,2.3,5.8c0,2.4-0.8,4.4-2.3,5.8C905.7,243.1,903.8,243.8,901.7,243.8z
					 M907.8,323.6h-12.1V256h12.1V323.6z"/>
				<path style="fill:#17191A;" d="M928.6,258c2.8-0.7,6.5-1.4,11.1-2.2c4.6-0.8,9.9-1.2,15.9-1.2c5.4,0,9.8,0.8,13.4,2.3
					c3.6,1.5,6.4,3.6,8.5,6.4c2.1,2.7,3.6,6,4.5,9.8c0.9,3.8,1.3,8,1.3,12.6v38h-12.1v-35.4c0-4.2-0.3-7.7-0.8-10.7
					c-0.6-2.9-1.5-5.3-2.8-7.2c-1.3-1.8-3-3.1-5.2-4c-2.2-0.8-4.9-1.2-8.1-1.2c-1.3,0-2.6,0-4,0.1c-1.4,0.1-2.7,0.2-4,0.3
					c-1.3,0.1-2.4,0.3-3.4,0.5c-1,0.2-1.7,0.3-2.1,0.4v57.1h-12.1V258z"/>
				<path style="fill:#17191A;" d="M1045.6,316.9c-1,0.7-3.1,1.6-6,2.7c-3,1.1-6.5,1.6-10.5,1.6c-4.1,0-7.9-0.7-11.5-2
					s-6.7-3.3-9.4-6c-2.7-2.7-4.8-6.1-6.4-10.2c-1.6-4.1-2.3-8.9-2.3-14.6c0-4.9,0.7-9.5,2.2-13.6c1.5-4.1,3.6-7.7,6.4-10.7
					c2.8-3,6.3-5.3,10.3-7c4.1-1.7,8.7-2.5,13.8-2.5c5.6,0,10.6,0.4,14.8,1.2c4.2,0.8,7.7,1.6,10.6,2.3v60.3
					c0,10.4-2.7,17.9-8.1,22.6c-5.4,4.7-13.5,7-24.4,7c-4.2,0-8.3-0.3-12-1c-3.8-0.7-7-1.5-9.8-2.5l2.2-10.5c2.4,1,5.4,1.8,8.9,2.5
					c3.5,0.7,7.2,1.1,11,1.1c7.2,0,12.4-1.4,15.5-4.3c3.2-2.9,4.7-7.4,4.7-13.7V316.9z M1045.4,266.7c-1.2-0.3-2.8-0.7-4.9-1
					c-2-0.3-4.8-0.5-8.3-0.5c-6.5,0-11.5,2.1-15,6.4c-3.5,4.2-5.3,9.9-5.3,16.9c0,3.9,0.5,7.2,1.5,10c1,2.8,2.3,5.1,4,6.9
					c1.7,1.8,3.6,3.2,5.9,4c2.2,0.9,4.5,1.3,6.8,1.3c3.2,0,6.2-0.5,8.8-1.4c2.7-0.9,4.8-2,6.4-3.2V266.7z"/>
			</g>
		</g>
		<g>
			<g>
				<path style="fill:#FFFFFF;" d="M604,366.9c-2.1,0-3.9-0.3-5.5-1c-1.6-0.7-2.9-1.6-4-2.8c-1.1-1.2-1.9-2.6-2.4-4.3
					c-0.5-1.7-0.8-3.5-0.8-5.5s0.3-3.8,0.9-5.5c0.6-1.7,1.4-3.1,2.5-4.3c1.1-1.2,2.4-2.2,3.9-2.8c1.5-0.7,3.3-1,5.2-1
					c1.2,0,2.3,0.1,3.5,0.3c1.2,0.2,2.3,0.5,3.4,0.9l-1.1,3.9c-0.7-0.3-1.5-0.6-2.4-0.8c-0.9-0.2-1.9-0.3-2.9-0.3
					c-2.6,0-4.6,0.8-6,2.5c-1.4,1.6-2.1,4-2.1,7.1c0,1.4,0.2,2.7,0.5,3.9c0.3,1.2,0.8,2.2,1.5,3c0.7,0.8,1.6,1.5,2.6,1.9
					c1.1,0.5,2.4,0.7,3.9,0.7c1.2,0,2.4-0.1,3.4-0.3c1-0.2,1.8-0.5,2.4-0.8l0.6,3.9c-0.3,0.2-0.6,0.3-1.1,0.5
					c-0.5,0.1-1.1,0.3-1.7,0.4c-0.6,0.1-1.3,0.2-2,0.3C605.3,366.8,604.6,366.9,604,366.9z"/>
				<path style="fill:#FFFFFF;" d="M630.5,339.7c0.4,0,0.9,0,1.4,0.1c0.5,0,1,0.1,1.5,0.2c0.5,0.1,1,0.2,1.4,0.3
					c0.4,0.1,0.7,0.2,0.9,0.2l-0.8,4.1c-0.4-0.1-1-0.3-1.8-0.5c-0.8-0.2-1.9-0.3-3.3-0.3c-0.9,0-1.7,0.1-2.6,0.3
					c-0.9,0.2-1.4,0.3-1.7,0.4v21.8h-4.6v-24.9c1.1-0.4,2.5-0.8,4.1-1.1C626.7,339.9,628.5,339.7,630.5,339.7z"/>
				<path style="fill:#FFFFFF;" d="M643.8,353.3c0-2.3,0.3-4.3,1-6c0.7-1.7,1.6-3.1,2.7-4.3c1.1-1.1,2.4-2,3.8-2.6
					c1.4-0.6,2.9-0.8,4.4-0.8c3.5,0,6.2,1.1,8.1,3.3c1.9,2.2,2.8,5.5,2.8,10c0,0.2,0,0.5,0,0.8s0,0.6,0,0.9h-17.8
					c0.2,2.7,1,4.8,2.4,6.2c1.4,1.4,3.5,2.1,6.4,2.1c1.6,0,3-0.1,4.1-0.4c1.1-0.3,2-0.6,2.5-0.8l0.7,3.9c-0.6,0.3-1.6,0.6-3,0.9
					c-1.4,0.3-3,0.5-4.8,0.5c-2.3,0-4.2-0.3-5.9-1c-1.6-0.7-3-1.6-4.1-2.8c-1.1-1.2-1.9-2.6-2.4-4.3
					C644,357.1,643.8,355.3,643.8,353.3z M661.6,350.8c0-2.1-0.5-3.8-1.6-5.2c-1.1-1.3-2.6-2-4.5-2c-1.1,0-2,0.2-2.8,0.6
					c-0.8,0.4-1.5,1-2.1,1.6c-0.6,0.7-1,1.4-1.3,2.3c-0.3,0.9-0.5,1.8-0.6,2.7H661.6z"/>
				<path style="fill:#FFFFFF;" d="M686.6,339.6c1.9,0,3.4,0.2,4.7,0.7c1.3,0.5,2.3,1.2,3.1,2.1c0.8,0.9,1.3,1.9,1.7,3.2
					c0.3,1.2,0.5,2.6,0.5,4v16.3c-0.4,0.1-1,0.2-1.7,0.3c-0.7,0.1-1.5,0.2-2.4,0.3c-0.9,0.1-1.9,0.2-2.9,0.3c-1,0.1-2.1,0.1-3.1,0.1
					c-1.5,0-2.8-0.1-4-0.4c-1.2-0.3-2.3-0.8-3.2-1.4c-0.9-0.6-1.6-1.5-2.1-2.6s-0.8-2.3-0.8-3.8c0-1.4,0.3-2.7,0.9-3.7
					c0.6-1,1.4-1.9,2.4-2.5c1-0.6,2.2-1.1,3.5-1.4c1.3-0.3,2.7-0.5,4.2-0.5c0.5,0,0.9,0,1.4,0.1c0.5,0,1,0.1,1.4,0.2
					c0.4,0.1,0.8,0.2,1.2,0.2c0.3,0.1,0.6,0.1,0.7,0.2v-1.3c0-0.8-0.1-1.5-0.3-2.3c-0.2-0.8-0.5-1.4-0.9-2c-0.4-0.6-1-1.1-1.8-1.4
					s-1.7-0.5-2.9-0.5c-1.5,0-2.9,0.1-4,0.3c-1.1,0.2-2,0.4-2.6,0.7l-0.5-3.8c0.6-0.3,1.6-0.5,3-0.8S684.9,339.6,686.6,339.6z
					 M687,362.9c1.1,0,2.1,0,2.9-0.1c0.9,0,1.6-0.1,2.1-0.3v-7.8c-0.3-0.2-0.9-0.3-1.6-0.4s-1.7-0.2-2.7-0.2c-0.7,0-1.4,0.1-2.2,0.2
					c-0.8,0.1-1.5,0.3-2.1,0.6s-1.2,0.8-1.6,1.3c-0.4,0.5-0.6,1.3-0.6,2.2c0,1.7,0.5,2.8,1.6,3.5C683.7,362.6,685.1,362.9,687,362.9
					z"/>
				<path style="fill:#FFFFFF;" d="M713.6,340.3h9.8v3.9h-9.8v12c0,1.3,0.1,2.4,0.3,3.2s0.5,1.5,0.9,2c0.4,0.5,0.9,0.8,1.5,1
					c0.6,0.2,1.3,0.3,2.1,0.3c1.4,0,2.5-0.2,3.4-0.5c0.8-0.3,1.4-0.5,1.8-0.7l0.9,3.9c-0.5,0.2-1.3,0.5-2.5,0.9
					c-1.2,0.3-2.5,0.5-4,0.5c-1.8,0-3.2-0.2-4.4-0.7c-1.1-0.5-2.1-1.1-2.8-2c-0.7-0.9-1.2-2-1.5-3.3s-0.4-2.8-0.4-4.6V333l4.7-0.8
					V340.3z"/>
				<path style="fill:#FFFFFF;" d="M736.7,335.6c-0.8,0-1.5-0.3-2.1-0.8s-0.9-1.3-0.9-2.2s0.3-1.7,0.9-2.2c0.6-0.6,1.3-0.8,2.1-0.8
					s1.5,0.3,2.1,0.8c0.6,0.5,0.9,1.3,0.9,2.2s-0.3,1.7-0.9,2.2S737.5,335.6,736.7,335.6z M739,366.3h-4.7v-26h4.7V366.3z"/>
				<path style="fill:#FFFFFF;" d="M772.3,340.3c-1.3,4.9-2.8,9.5-4.6,14s-3.4,8.5-5.1,12h-4.2c-1.6-3.5-3.3-7.5-5.1-12
					s-3.3-9.1-4.6-14h5c0.4,1.6,0.9,3.4,1.4,5.2c0.5,1.8,1.1,3.7,1.8,5.5c0.6,1.8,1.2,3.6,1.9,5.3c0.6,1.7,1.2,3.2,1.8,4.5
					c0.6-1.3,1.2-2.8,1.8-4.5c0.6-1.7,1.3-3.5,1.9-5.3c0.6-1.8,1.2-3.7,1.8-5.5s1-3.6,1.4-5.2H772.3z"/>
				<path style="fill:#FFFFFF;" d="M780,353.3c0-2.3,0.3-4.3,1-6s1.6-3.1,2.7-4.3s2.4-2,3.8-2.6c1.4-0.6,2.9-0.8,4.4-0.8
					c3.5,0,6.2,1.1,8,3.3c1.9,2.2,2.8,5.5,2.8,10c0,0.2,0,0.5,0,0.8s0,0.6,0,0.9h-17.8c0.2,2.7,1,4.8,2.3,6.2
					c1.4,1.4,3.5,2.1,6.4,2.1c1.6,0,3-0.1,4.1-0.4c1.1-0.3,2-0.6,2.5-0.8l0.7,3.9c-0.6,0.3-1.6,0.6-3,0.9c-1.4,0.3-3,0.5-4.8,0.5
					c-2.3,0-4.2-0.3-5.9-1c-1.7-0.7-3-1.6-4.1-2.8c-1.1-1.2-1.9-2.6-2.4-4.3C780.2,357.1,780,355.3,780,353.3z M797.8,350.8
					c0-2.1-0.5-3.8-1.6-5.2c-1.1-1.3-2.6-2-4.5-2c-1.1,0-2,0.2-2.8,0.6c-0.8,0.4-1.5,1-2.1,1.6c-0.6,0.7-1,1.4-1.3,2.3
					c-0.3,0.9-0.5,1.8-0.6,2.7H797.8z"/>
				<path style="fill:#FFFFFF;" d="M837,362.9c1.9,0,3.3-0.3,4.2-0.8c0.9-0.5,1.4-1.3,1.4-2.4c0-1.1-0.5-2-1.4-2.7
					c-0.9-0.7-2.4-1.4-4.4-2.3c-1-0.4-2-0.8-2.9-1.2c-0.9-0.4-1.7-0.9-2.4-1.5c-0.7-0.6-1.2-1.3-1.6-2.1c-0.4-0.8-0.6-1.8-0.6-2.9
					c0-2.3,0.8-4.1,2.5-5.5s4-2,7-2c0.7,0,1.5,0,2.2,0.1c0.7,0.1,1.4,0.2,2,0.3c0.6,0.1,1.2,0.2,1.7,0.4c0.5,0.1,0.9,0.3,1.1,0.3
					l-0.8,4c-0.5-0.3-1.3-0.5-2.4-0.8c-1.1-0.3-2.3-0.4-3.8-0.4c-1.3,0-2.4,0.3-3.4,0.8c-1,0.5-1.5,1.3-1.5,2.4
					c0,0.6,0.1,1.1,0.3,1.5c0.2,0.4,0.5,0.8,1,1.2s1,0.7,1.7,1s1.5,0.6,2.4,0.9c1.2,0.5,2.3,0.9,3.3,1.4c1,0.5,1.8,1,2.5,1.6
					c0.7,0.6,1.2,1.3,1.6,2.2c0.4,0.9,0.6,1.9,0.6,3.1c0,2.4-0.9,4.2-2.7,5.5s-4.3,1.8-7.6,1.8c-2.3,0-4.1-0.2-5.4-0.6
					s-2.2-0.7-2.7-0.9l0.9-4c0.5,0.2,1.4,0.5,2.5,0.9C833.5,362.7,835,362.9,837,362.9z"/>
				<path style="fill:#FFFFFF;" d="M862.6,340.3h9.8v3.9h-9.8v12c0,1.3,0.1,2.4,0.3,3.2s0.5,1.5,0.9,2c0.4,0.5,0.9,0.8,1.5,1
					c0.6,0.2,1.3,0.3,2.1,0.3c1.4,0,2.5-0.2,3.4-0.5c0.8-0.3,1.4-0.5,1.8-0.7l0.9,3.9c-0.5,0.2-1.3,0.5-2.5,0.9
					c-1.2,0.3-2.5,0.5-4,0.5c-1.8,0-3.2-0.2-4.4-0.7c-1.1-0.5-2.1-1.1-2.8-2c-0.7-0.9-1.2-2-1.5-3.3s-0.4-2.8-0.4-4.6V333l4.7-0.8
					V340.3z"/>
				<path style="fill:#FFFFFF;" d="M904,365.5c-1.1,0.3-2.5,0.5-4.2,0.8s-3.8,0.4-6.1,0.4c-2,0-3.7-0.3-5-0.9
					c-1.4-0.6-2.5-1.4-3.3-2.5c-0.8-1.1-1.4-2.3-1.8-3.8c-0.4-1.4-0.5-3.1-0.5-4.8v-14.6h4.7v13.6c0,3.2,0.5,5.4,1.5,6.8s2.7,2,5,2
					c0.5,0,1,0,1.5,0s1-0.1,1.5-0.1c0.5-0.1,0.9-0.1,1.3-0.2c0.4-0.1,0.7-0.1,0.8-0.2v-21.9h4.7V365.5z"/>
				<path style="fill:#FFFFFF;" d="M933.8,328.3l4.7-0.8v38.1c-1.1,0.3-2.4,0.6-4.1,0.9c-1.7,0.3-3.6,0.4-5.8,0.4
					c-2,0-3.8-0.3-5.4-0.9c-1.6-0.6-3-1.5-4.1-2.7c-1.1-1.2-2-2.6-2.6-4.3c-0.6-1.7-0.9-3.6-0.9-5.7c0-2,0.3-3.8,0.8-5.5
					c0.5-1.7,1.3-3.1,2.3-4.3c1-1.2,2.2-2.1,3.7-2.8c1.4-0.7,3.1-1,5-1c1.5,0,2.8,0.2,4,0.6c1.2,0.4,2,0.8,2.6,1.2V328.3z
					 M933.8,345.8c-0.6-0.5-1.4-0.9-2.5-1.3s-2.2-0.7-3.5-0.7c-1.3,0-2.5,0.2-3.4,0.7c-1,0.5-1.7,1.2-2.3,2c-0.6,0.8-1,1.9-1.3,3
					s-0.4,2.4-0.4,3.8c0,3,0.8,5.4,2.3,7c1.5,1.6,3.5,2.5,6,2.5c1.3,0,2.3-0.1,3.2-0.2c0.8-0.1,1.5-0.2,2-0.4V345.8z"/>
				<path style="fill:#FFFFFF;" d="M953.8,335.6c-0.8,0-1.5-0.3-2.1-0.8s-0.9-1.3-0.9-2.2s0.3-1.7,0.9-2.2c0.6-0.6,1.3-0.8,2.1-0.8
					s1.5,0.3,2.1,0.8c0.6,0.5,0.9,1.3,0.9,2.2s-0.3,1.7-0.9,2.2S954.6,335.6,953.8,335.6z M956.1,366.3h-4.7v-26h4.7V366.3z"/>
				<path style="fill:#FFFFFF;" d="M992.1,353.3c0,2.1-0.3,3.9-0.9,5.6c-0.6,1.7-1.4,3.1-2.5,4.3c-1.1,1.2-2.4,2.1-3.9,2.8
					c-1.5,0.7-3.1,1-4.9,1c-1.8,0-3.4-0.3-4.9-1c-1.5-0.6-2.8-1.6-3.9-2.8c-1.1-1.2-1.9-2.6-2.5-4.3c-0.6-1.7-0.9-3.5-0.9-5.6
					c0-2,0.3-3.9,0.9-5.6c0.6-1.7,1.4-3.1,2.5-4.3s2.4-2.1,3.9-2.8s3.1-1,4.9-1c1.8,0,3.4,0.3,4.9,1s2.8,1.6,3.9,2.8
					c1.1,1.2,1.9,2.6,2.5,4.3C991.8,349.4,992.1,351.2,992.1,353.3z M987.2,353.3c0-2.9-0.7-5.3-2-7c-1.3-1.7-3.1-2.6-5.4-2.6
					c-2.3,0-4.1,0.9-5.4,2.6c-1.3,1.7-2,4-2,7s0.7,5.3,2,7c1.3,1.7,3.1,2.6,5.4,2.6c2.3,0,4.1-0.9,5.4-2.6
					C986.6,358.5,987.2,356.2,987.2,353.3z"/>
			</g>
			<g>
				<path style="fill:#FFFFFF;" d="M632.8,323.6c-2.4-6.2-5-13.4-7.7-21.4c-2.7-8-5.2-16.4-7.5-25c-2.3,8.7-4.7,17-7.4,25
					c-2.7,8-5.2,15.1-7.7,21.4H592c-4-8.9-7.9-19.1-11.7-30.5c-3.8-11.4-7.4-23.8-10.8-37h13c0.9,4.1,1.9,8.5,3.1,13.3
					c1.2,4.8,2.5,9.5,3.8,14.3c1.3,4.8,2.8,9.4,4.2,13.8c1.5,4.4,2.9,8.3,4.2,11.6c1.5-4.1,2.9-8.4,4.4-12.9
					c1.4-4.5,2.8-9.1,4.1-13.8c1.3-4.6,2.5-9.2,3.7-13.6c1.2-4.5,2.2-8.6,3.1-12.5h10c0.8,3.9,1.7,8.1,2.9,12.5
					c1.1,4.5,2.3,9,3.6,13.6c1.3,4.6,2.7,9.2,4.1,13.8c1.4,4.5,2.9,8.9,4.4,12.9c1.3-3.3,2.7-7.1,4.1-11.6c1.4-4.4,2.8-9,4.2-13.8
					c1.4-4.8,2.7-9.5,3.9-14.3c1.2-4.8,2.3-9.2,3.1-13.3h12.5c-3.4,13.3-7,25.6-10.8,37c-3.8,11.4-7.7,21.6-11.7,30.5H632.8z"/>
				<path style="fill:#FFFFFF;" d="M674.8,290c0-6,0.9-11.2,2.6-15.7c1.7-4.5,4-8.2,6.9-11.1c2.9-2.9,6.2-5.2,9.9-6.6
					c3.7-1.5,7.5-2.2,11.4-2.2c9.1,0,16.1,2.8,20.9,8.5c4.9,5.7,7.3,14.3,7.3,25.9c0,0.5,0,1.2,0,2c0,0.8,0,1.6-0.1,2.3h-46.3
					c0.5,7,2.6,12.3,6.1,16c3.6,3.6,9.1,5.5,16.6,5.5c4.2,0,7.8-0.4,10.7-1.1c2.9-0.7,5.1-1.5,6.6-2.1l1.7,10.1
					c-1.5,0.8-4.1,1.6-7.7,2.5s-7.9,1.3-12.5,1.3c-5.9,0-11-0.9-15.3-2.7c-4.3-1.8-7.8-4.2-10.6-7.3c-2.8-3.1-4.8-6.8-6.2-11.1
					C675.5,299.8,674.8,295.1,674.8,290z M721.2,283.3c0.1-5.5-1.3-9.9-4.1-13.5c-2.8-3.5-6.7-5.3-11.6-5.3c-2.8,0-5.2,0.5-7.3,1.6
					c-2.1,1.1-3.9,2.5-5.4,4.2c-1.5,1.7-2.6,3.7-3.4,6c-0.8,2.3-1.4,4.6-1.6,6.9H721.2z"/>
				<path style="fill:#FFFFFF;" d="M763.3,259c1.5-1,3.7-1.9,6.7-3s6.4-1.6,10.3-1.6c4.9,0,9.2,0.9,12.9,2.6c3.8,1.7,7,4.2,9.6,7.3
					c2.6,3.1,4.6,6.8,5.9,11.2c1.3,4.3,2,9.1,2,14.3c0,5.5-0.8,10.4-2.4,14.8c-1.6,4.4-3.9,8.1-6.8,11.1c-2.9,3-6.5,5.4-10.7,7
					s-8.8,2.5-14,2.5c-5.6,0-10.6-0.4-14.9-1.2c-4.3-0.8-7.9-1.6-10.7-2.3v-96.8l12.1-2.1V259z M763.3,313.1c1.2,0.3,2.9,0.7,5.1,1
					c2.2,0.3,5,0.5,8.3,0.5c6.5,0,11.7-2.1,15.6-6.4s5.8-10.4,5.8-18.3c0-3.5-0.3-6.7-1-9.8c-0.7-3-1.8-5.7-3.4-7.9
					c-1.6-2.2-3.6-3.9-6-5.2c-2.5-1.3-5.4-1.9-8.9-1.9c-3.3,0-6.3,0.6-9.1,1.7c-2.8,1.1-4.9,2.3-6.4,3.5V313.1z"/>
				<path style="fill:#FFFFFF;" d="M852.3,286.4c2.6,2,5.4,4.5,8.3,7.4c2.9,2.9,5.8,6.1,8.6,9.6c2.8,3.4,5.5,6.9,8,10.4
					c2.5,3.5,4.6,6.8,6.4,9.8h-14.2c-1.8-3-3.9-6.1-6.3-9.3c-2.4-3.2-4.9-6.2-7.5-9.1c-2.6-2.9-5.2-5.6-7.9-8
					c-2.7-2.4-5.2-4.5-7.7-6.1v32.5h-12.1v-98.8l12.1-2.1v61.6c2.1-2.1,4.4-4.4,6.9-6.9c2.5-2.5,5-5.1,7.4-7.7
					c2.4-2.6,4.7-5.1,6.9-7.5c2.2-2.4,4-4.5,5.6-6.3h14.2c-2,2.2-4.2,4.5-6.5,7.1c-2.3,2.6-4.8,5.2-7.3,7.9c-2.5,2.6-5,5.3-7.6,7.9
					C856.9,281.6,854.5,284.1,852.3,286.4z"/>
				<path style="fill:#FFFFFF;" d="M901.7,243.8c-2.2,0-4-0.7-5.5-2.1c-1.5-1.4-2.3-3.4-2.3-5.8c0-2.4,0.8-4.4,2.3-5.8
					c1.5-1.4,3.4-2.1,5.5-2.1s4,0.7,5.5,2.1c1.5,1.4,2.3,3.4,2.3,5.8c0,2.4-0.8,4.4-2.3,5.8C905.7,243.1,903.8,243.8,901.7,243.8z
					 M907.8,323.6h-12.1V256h12.1V323.6z"/>
				<path style="fill:#FFFFFF;" d="M928.6,258c2.8-0.7,6.5-1.4,11.1-2.2c4.6-0.8,9.9-1.2,15.9-1.2c5.4,0,9.8,0.8,13.4,2.3
					c3.6,1.5,6.4,3.6,8.5,6.4c2.1,2.7,3.6,6,4.5,9.8c0.9,3.8,1.3,8,1.3,12.6v38h-12.1v-35.4c0-4.2-0.3-7.7-0.8-10.7
					c-0.6-2.9-1.5-5.3-2.8-7.2c-1.3-1.8-3-3.1-5.2-4c-2.2-0.8-4.9-1.2-8.1-1.2c-1.3,0-2.6,0-4,0.1c-1.4,0.1-2.7,0.2-4,0.3
					c-1.3,0.1-2.4,0.3-3.4,0.5c-1,0.2-1.7,0.3-2.1,0.4v57.1h-12.1V258z"/>
				<path style="fill:#FFFFFF;" d="M1045.6,316.9c-1,0.7-3.1,1.6-6,2.7c-3,1.1-6.5,1.6-10.5,1.6c-4.1,0-7.9-0.7-11.5-2
					s-6.7-3.3-9.4-6c-2.7-2.7-4.8-6.1-6.4-10.2c-1.6-4.1-2.3-8.9-2.3-14.6c0-4.9,0.7-9.5,2.2-13.6c1.5-4.1,3.6-7.7,6.4-10.7
					c2.8-3,6.3-5.3,10.3-7c4.1-1.7,8.7-2.5,13.8-2.5c5.6,0,10.6,0.4,14.8,1.2c4.2,0.8,7.7,1.6,10.6,2.3v60.3
					c0,10.4-2.7,17.9-8.1,22.6c-5.4,4.7-13.5,7-24.4,7c-4.2,0-8.3-0.3-12-1c-3.8-0.7-7-1.5-9.8-2.5l2.2-10.5c2.4,1,5.4,1.8,8.9,2.5
					c3.5,0.7,7.2,1.1,11,1.1c7.2,0,12.4-1.4,15.5-4.3c3.2-2.9,4.7-7.4,4.7-13.7V316.9z M1045.4,266.7c-1.2-0.3-2.8-0.7-4.9-1
					c-2-0.3-4.8-0.5-8.3-0.5c-6.5,0-11.5,2.1-15,6.4c-3.5,4.2-5.3,9.9-5.3,16.9c0,3.9,0.5,7.2,1.5,10c1,2.8,2.3,5.1,4,6.9
					c1.7,1.8,3.6,3.2,5.9,4c2.2,0.9,4.5,1.3,6.8,1.3c3.2,0,6.2-0.5,8.8-1.4c2.7-0.9,4.8-2,6.4-3.2V266.7z"/>
			</g>
		</g>
	</g>
</g>
<g>
	
		<rect x="515.9" y="-22.8" transform="matrix(-1.836970e-16 1 -1 -1.836970e-16 1111.1633 -515.8834)" style="fill:#FFFFFF;" width="595.3" height="640.9"/>
	<g>
		<g>
			<g>
				<path style="fill:#17191A;" d="M604,366.9c-2.1,0-3.9-0.3-5.5-1c-1.6-0.7-2.9-1.6-4-2.8c-1.1-1.2-1.9-2.6-2.4-4.3
					c-0.5-1.7-0.8-3.5-0.8-5.5s0.3-3.8,0.9-5.5c0.6-1.7,1.4-3.1,2.5-4.3c1.1-1.2,2.4-2.2,3.9-2.8c1.5-0.7,3.3-1,5.2-1
					c1.2,0,2.3,0.1,3.5,0.3c1.2,0.2,2.3,0.5,3.4,0.9l-1.1,3.9c-0.7-0.3-1.5-0.6-2.4-0.8c-0.9-0.2-1.9-0.3-2.9-0.3
					c-2.6,0-4.6,0.8-6,2.5c-1.4,1.6-2.1,4-2.1,7.1c0,1.4,0.2,2.7,0.5,3.9c0.3,1.2,0.8,2.2,1.5,3c0.7,0.8,1.6,1.5,2.6,1.9
					c1.1,0.5,2.4,0.7,3.9,0.7c1.2,0,2.4-0.1,3.4-0.3c1-0.2,1.8-0.5,2.4-0.8l0.6,3.9c-0.3,0.2-0.6,0.3-1.1,0.5
					c-0.5,0.1-1.1,0.3-1.7,0.4c-0.6,0.1-1.3,0.2-2,0.3C605.3,366.8,604.6,366.9,604,366.9z"/>
				<path style="fill:#17191A;" d="M630.5,339.7c0.4,0,0.9,0,1.4,0.1c0.5,0,1,0.1,1.5,0.2c0.5,0.1,1,0.2,1.4,0.3
					c0.4,0.1,0.7,0.2,0.9,0.2l-0.8,4.1c-0.4-0.1-1-0.3-1.8-0.5c-0.8-0.2-1.9-0.3-3.3-0.3c-0.9,0-1.7,0.1-2.6,0.3
					c-0.9,0.2-1.4,0.3-1.7,0.4v21.8h-4.6v-24.9c1.1-0.4,2.5-0.8,4.1-1.1C626.7,339.9,628.5,339.7,630.5,339.7z"/>
				<path style="fill:#17191A;" d="M643.8,353.3c0-2.3,0.3-4.3,1-6c0.7-1.7,1.6-3.1,2.7-4.3c1.1-1.1,2.4-2,3.8-2.6
					c1.4-0.6,2.9-0.8,4.4-0.8c3.5,0,6.2,1.1,8.1,3.3c1.9,2.2,2.8,5.5,2.8,10c0,0.2,0,0.5,0,0.8s0,0.6,0,0.9h-17.8
					c0.2,2.7,1,4.8,2.4,6.2c1.4,1.4,3.5,2.1,6.4,2.1c1.6,0,3-0.1,4.1-0.4c1.1-0.3,2-0.6,2.5-0.8l0.7,3.9c-0.6,0.3-1.6,0.6-3,0.9
					c-1.4,0.3-3,0.5-4.8,0.5c-2.3,0-4.2-0.3-5.9-1c-1.6-0.7-3-1.6-4.1-2.8c-1.1-1.2-1.9-2.6-2.4-4.3
					C644,357.1,643.8,355.3,643.8,353.3z M661.6,350.8c0-2.1-0.5-3.8-1.6-5.2c-1.1-1.3-2.6-2-4.5-2c-1.1,0-2,0.2-2.8,0.6
					c-0.8,0.4-1.5,1-2.1,1.6c-0.6,0.7-1,1.4-1.3,2.3c-0.3,0.9-0.5,1.8-0.6,2.7H661.6z"/>
				<path style="fill:#17191A;" d="M686.6,339.6c1.9,0,3.4,0.2,4.7,0.7c1.3,0.5,2.3,1.2,3.1,2.1c0.8,0.9,1.3,1.9,1.7,3.2
					c0.3,1.2,0.5,2.6,0.5,4v16.3c-0.4,0.1-1,0.2-1.7,0.3c-0.7,0.1-1.5,0.2-2.4,0.3c-0.9,0.1-1.9,0.2-2.9,0.3c-1,0.1-2.1,0.1-3.1,0.1
					c-1.5,0-2.8-0.1-4-0.4c-1.2-0.3-2.3-0.8-3.2-1.4c-0.9-0.6-1.6-1.5-2.1-2.6s-0.8-2.3-0.8-3.8c0-1.4,0.3-2.7,0.9-3.7
					c0.6-1,1.4-1.9,2.4-2.5c1-0.6,2.2-1.1,3.5-1.4c1.3-0.3,2.7-0.5,4.2-0.5c0.5,0,0.9,0,1.4,0.1c0.5,0,1,0.1,1.4,0.2
					c0.4,0.1,0.8,0.2,1.2,0.2c0.3,0.1,0.6,0.1,0.7,0.2v-1.3c0-0.8-0.1-1.5-0.3-2.3c-0.2-0.8-0.5-1.4-0.9-2c-0.4-0.6-1-1.1-1.8-1.4
					s-1.7-0.5-2.9-0.5c-1.5,0-2.9,0.1-4,0.3c-1.1,0.2-2,0.4-2.6,0.7l-0.5-3.8c0.6-0.3,1.6-0.5,3-0.8S684.9,339.6,686.6,339.6z
					 M687,362.9c1.1,0,2.1,0,2.9-0.1c0.9,0,1.6-0.1,2.1-0.3v-7.8c-0.3-0.2-0.9-0.3-1.6-0.4s-1.7-0.2-2.7-0.2c-0.7,0-1.4,0.1-2.2,0.2
					c-0.8,0.1-1.5,0.3-2.1,0.6s-1.2,0.8-1.6,1.3c-0.4,0.5-0.6,1.3-0.6,2.2c0,1.7,0.5,2.8,1.6,3.5C683.7,362.6,685.1,362.9,687,362.9
					z"/>
				<path style="fill:#17191A;" d="M713.6,340.3h9.8v3.9h-9.8v12c0,1.3,0.1,2.4,0.3,3.2s0.5,1.5,0.9,2c0.4,0.5,0.9,0.8,1.5,1
					c0.6,0.2,1.3,0.3,2.1,0.3c1.4,0,2.5-0.2,3.4-0.5c0.8-0.3,1.4-0.5,1.8-0.7l0.9,3.9c-0.5,0.2-1.3,0.5-2.5,0.9
					c-1.2,0.3-2.5,0.5-4,0.5c-1.8,0-3.2-0.2-4.4-0.7c-1.1-0.5-2.1-1.1-2.8-2c-0.7-0.9-1.2-2-1.5-3.3s-0.4-2.8-0.4-4.6V333l4.7-0.8
					V340.3z"/>
				<path style="fill:#17191A;" d="M736.7,335.6c-0.8,0-1.5-0.3-2.1-0.8s-0.9-1.3-0.9-2.2s0.3-1.7,0.9-2.2c0.6-0.6,1.3-0.8,2.1-0.8
					s1.5,0.3,2.1,0.8c0.6,0.5,0.9,1.3,0.9,2.2s-0.3,1.7-0.9,2.2S737.5,335.6,736.7,335.6z M739,366.3h-4.7v-26h4.7V366.3z"/>
				<path style="fill:#17191A;" d="M772.3,340.3c-1.3,4.9-2.8,9.5-4.6,14s-3.4,8.5-5.1,12h-4.2c-1.6-3.5-3.3-7.5-5.1-12
					s-3.3-9.1-4.6-14h5c0.4,1.6,0.9,3.4,1.4,5.2c0.5,1.8,1.1,3.7,1.8,5.5c0.6,1.8,1.2,3.6,1.9,5.3c0.6,1.7,1.2,3.2,1.8,4.5
					c0.6-1.3,1.2-2.8,1.8-4.5c0.6-1.7,1.3-3.5,1.9-5.3c0.6-1.8,1.2-3.7,1.8-5.5s1-3.6,1.4-5.2H772.3z"/>
				<path style="fill:#17191A;" d="M780,353.3c0-2.3,0.3-4.3,1-6s1.6-3.1,2.7-4.3s2.4-2,3.8-2.6c1.4-0.6,2.9-0.8,4.4-0.8
					c3.5,0,6.2,1.1,8,3.3c1.9,2.2,2.8,5.5,2.8,10c0,0.2,0,0.5,0,0.8s0,0.6,0,0.9h-17.8c0.2,2.7,1,4.8,2.3,6.2
					c1.4,1.4,3.5,2.1,6.4,2.1c1.6,0,3-0.1,4.1-0.4c1.1-0.3,2-0.6,2.5-0.8l0.7,3.9c-0.6,0.3-1.6,0.6-3,0.9c-1.4,0.3-3,0.5-4.8,0.5
					c-2.3,0-4.2-0.3-5.9-1c-1.7-0.7-3-1.6-4.1-2.8c-1.1-1.2-1.9-2.6-2.4-4.3C780.2,357.1,780,355.3,780,353.3z M797.8,350.8
					c0-2.1-0.5-3.8-1.6-5.2c-1.1-1.3-2.6-2-4.5-2c-1.1,0-2,0.2-2.8,0.6c-0.8,0.4-1.5,1-2.1,1.6c-0.6,0.7-1,1.4-1.3,2.3
					c-0.3,0.9-0.5,1.8-0.6,2.7H797.8z"/>
				<path style="fill:#17191A;" d="M837,362.9c1.9,0,3.3-0.3,4.2-0.8c0.9-0.5,1.4-1.3,1.4-2.4c0-1.1-0.5-2-1.4-2.7
					c-0.9-0.7-2.4-1.4-4.4-2.3c-1-0.4-2-0.8-2.9-1.2c-0.9-0.4-1.7-0.9-2.4-1.5c-0.7-0.6-1.2-1.3-1.6-2.1c-0.4-0.8-0.6-1.8-0.6-2.9
					c0-2.3,0.8-4.1,2.5-5.5s4-2,7-2c0.7,0,1.5,0,2.2,0.1c0.7,0.1,1.4,0.2,2,0.3c0.6,0.1,1.2,0.2,1.7,0.4c0.5,0.1,0.9,0.3,1.1,0.3
					l-0.8,4c-0.5-0.3-1.3-0.5-2.4-0.8c-1.1-0.3-2.3-0.4-3.8-0.4c-1.3,0-2.4,0.3-3.4,0.8c-1,0.5-1.5,1.3-1.5,2.4
					c0,0.6,0.1,1.1,0.3,1.5c0.2,0.4,0.5,0.8,1,1.2s1,0.7,1.7,1s1.5,0.6,2.4,0.9c1.2,0.5,2.3,0.9,3.3,1.4c1,0.5,1.8,1,2.5,1.6
					c0.7,0.6,1.2,1.3,1.6,2.2c0.4,0.9,0.6,1.9,0.6,3.1c0,2.4-0.9,4.2-2.7,5.5s-4.3,1.8-7.6,1.8c-2.3,0-4.1-0.2-5.4-0.6
					s-2.2-0.7-2.7-0.9l0.9-4c0.5,0.2,1.4,0.5,2.5,0.9C833.5,362.7,835,362.9,837,362.9z"/>
				<path style="fill:#17191A;" d="M862.6,340.3h9.8v3.9h-9.8v12c0,1.3,0.1,2.4,0.3,3.2s0.5,1.5,0.9,2c0.4,0.5,0.9,0.8,1.5,1
					c0.6,0.2,1.3,0.3,2.1,0.3c1.4,0,2.5-0.2,3.4-0.5c0.8-0.3,1.4-0.5,1.8-0.7l0.9,3.9c-0.5,0.2-1.3,0.5-2.5,0.9
					c-1.2,0.3-2.5,0.5-4,0.5c-1.8,0-3.2-0.2-4.4-0.7c-1.1-0.5-2.1-1.1-2.8-2c-0.7-0.9-1.2-2-1.5-3.3s-0.4-2.8-0.4-4.6V333l4.7-0.8
					V340.3z"/>
				<path style="fill:#17191A;" d="M904,365.5c-1.1,0.3-2.5,0.5-4.2,0.8s-3.8,0.4-6.1,0.4c-2,0-3.7-0.3-5-0.9
					c-1.4-0.6-2.5-1.4-3.3-2.5c-0.8-1.1-1.4-2.3-1.8-3.8c-0.4-1.4-0.5-3.1-0.5-4.8v-14.6h4.7v13.6c0,3.2,0.5,5.4,1.5,6.8s2.7,2,5,2
					c0.5,0,1,0,1.5,0s1-0.1,1.5-0.1c0.5-0.1,0.9-0.1,1.3-0.2c0.4-0.1,0.7-0.1,0.8-0.2v-21.9h4.7V365.5z"/>
				<path style="fill:#17191A;" d="M933.8,328.3l4.7-0.8v38.1c-1.1,0.3-2.4,0.6-4.1,0.9c-1.7,0.3-3.6,0.4-5.8,0.4
					c-2,0-3.8-0.3-5.4-0.9c-1.6-0.6-3-1.5-4.1-2.7c-1.1-1.2-2-2.6-2.6-4.3c-0.6-1.7-0.9-3.6-0.9-5.7c0-2,0.3-3.8,0.8-5.5
					c0.5-1.7,1.3-3.1,2.3-4.3c1-1.2,2.2-2.1,3.7-2.8c1.4-0.7,3.1-1,5-1c1.5,0,2.8,0.2,4,0.6c1.2,0.4,2,0.8,2.6,1.2V328.3z
					 M933.8,345.8c-0.6-0.5-1.4-0.9-2.5-1.3s-2.2-0.7-3.5-0.7c-1.3,0-2.5,0.2-3.4,0.7c-1,0.5-1.7,1.2-2.3,2c-0.6,0.8-1,1.9-1.3,3
					s-0.4,2.4-0.4,3.8c0,3,0.8,5.4,2.3,7c1.5,1.6,3.5,2.5,6,2.5c1.3,0,2.3-0.1,3.2-0.2c0.8-0.1,1.5-0.2,2-0.4V345.8z"/>
				<path style="fill:#17191A;" d="M953.8,335.6c-0.8,0-1.5-0.3-2.1-0.8s-0.9-1.3-0.9-2.2s0.3-1.7,0.9-2.2c0.6-0.6,1.3-0.8,2.1-0.8
					s1.5,0.3,2.1,0.8c0.6,0.5,0.9,1.3,0.9,2.2s-0.3,1.7-0.9,2.2S954.6,335.6,953.8,335.6z M956.1,366.3h-4.7v-26h4.7V366.3z"/>
				<path style="fill:#17191A;" d="M992.1,353.3c0,2.1-0.3,3.9-0.9,5.6c-0.6,1.7-1.4,3.1-2.5,4.3c-1.1,1.2-2.4,2.1-3.9,2.8
					c-1.5,0.7-3.1,1-4.9,1c-1.8,0-3.4-0.3-4.9-1c-1.5-0.6-2.8-1.6-3.9-2.8c-1.1-1.2-1.9-2.6-2.5-4.3c-0.6-1.7-0.9-3.5-0.9-5.6
					c0-2,0.3-3.9,0.9-5.6c0.6-1.7,1.4-3.1,2.5-4.3s2.4-2.1,3.9-2.8s3.1-1,4.9-1c1.8,0,3.4,0.3,4.9,1s2.8,1.6,3.9,2.8
					c1.1,1.2,1.9,2.6,2.5,4.3C991.8,349.4,992.1,351.2,992.1,353.3z M987.2,353.3c0-2.9-0.7-5.3-2-7c-1.3-1.7-3.1-2.6-5.4-2.6
					c-2.3,0-4.1,0.9-5.4,2.6c-1.3,1.7-2,4-2,7s0.7,5.3,2,7c1.3,1.7,3.1,2.6,5.4,2.6c2.3,0,4.1-0.9,5.4-2.6
					C986.6,358.5,987.2,356.2,987.2,353.3z"/>
			</g>
			<g>
				<path style="fill:#17191A;" d="M632.8,323.6c-2.4-6.2-5-13.4-7.7-21.4c-2.7-8-5.2-16.4-7.5-25c-2.3,8.7-4.7,17-7.4,25
					c-2.7,8-5.2,15.1-7.7,21.4H592c-4-8.9-7.9-19.1-11.7-30.5c-3.8-11.4-7.4-23.8-10.8-37h13c0.9,4.1,1.9,8.5,3.1,13.3
					c1.2,4.8,2.5,9.5,3.8,14.3c1.3,4.8,2.8,9.4,4.2,13.8c1.5,4.4,2.9,8.3,4.2,11.6c1.5-4.1,2.9-8.4,4.4-12.9
					c1.4-4.5,2.8-9.1,4.1-13.8c1.3-4.6,2.5-9.2,3.7-13.6c1.2-4.5,2.2-8.6,3.1-12.5h10c0.8,3.9,1.7,8.1,2.9,12.5
					c1.1,4.5,2.3,9,3.6,13.6c1.3,4.6,2.7,9.2,4.1,13.8c1.4,4.5,2.9,8.9,4.4,12.9c1.3-3.3,2.7-7.1,4.1-11.6c1.4-4.4,2.8-9,4.2-13.8
					c1.4-4.8,2.7-9.5,3.9-14.3c1.2-4.8,2.3-9.2,3.1-13.3h12.5c-3.4,13.3-7,25.6-10.8,37c-3.8,11.4-7.7,21.6-11.7,30.5H632.8z"/>
				<path style="fill:#17191A;" d="M674.8,290c0-6,0.9-11.2,2.6-15.7c1.7-4.5,4-8.2,6.9-11.1c2.9-2.9,6.2-5.2,9.9-6.6
					c3.7-1.5,7.5-2.2,11.4-2.2c9.1,0,16.1,2.8,20.9,8.5c4.9,5.7,7.3,14.3,7.3,25.9c0,0.5,0,1.2,0,2c0,0.8,0,1.6-0.1,2.3h-46.3
					c0.5,7,2.6,12.3,6.1,16c3.6,3.6,9.1,5.5,16.6,5.5c4.2,0,7.8-0.4,10.7-1.1c2.9-0.7,5.1-1.5,6.6-2.1l1.7,10.1
					c-1.5,0.8-4.1,1.6-7.7,2.5s-7.9,1.3-12.5,1.3c-5.9,0-11-0.9-15.3-2.7c-4.3-1.8-7.8-4.2-10.6-7.3c-2.8-3.1-4.8-6.8-6.2-11.1
					C675.5,299.8,674.8,295.1,674.8,290z M721.2,283.3c0.1-5.5-1.3-9.9-4.1-13.5c-2.8-3.5-6.7-5.3-11.6-5.3c-2.8,0-5.2,0.5-7.3,1.6
					c-2.1,1.1-3.9,2.5-5.4,4.2c-1.5,1.7-2.6,3.7-3.4,6c-0.8,2.3-1.4,4.6-1.6,6.9H721.2z"/>
				<path style="fill:#17191A;" d="M763.3,259c1.5-1,3.7-1.9,6.7-3s6.4-1.6,10.3-1.6c4.9,0,9.2,0.9,12.9,2.6c3.8,1.7,7,4.2,9.6,7.3
					c2.6,3.1,4.6,6.8,5.9,11.2c1.3,4.3,2,9.1,2,14.3c0,5.5-0.8,10.4-2.4,14.8c-1.6,4.4-3.9,8.1-6.8,11.1c-2.9,3-6.5,5.4-10.7,7
					s-8.8,2.5-14,2.5c-5.6,0-10.6-0.4-14.9-1.2c-4.3-0.8-7.9-1.6-10.7-2.3v-96.8l12.1-2.1V259z M763.3,313.1c1.2,0.3,2.9,0.7,5.1,1
					c2.2,0.3,5,0.5,8.3,0.5c6.5,0,11.7-2.1,15.6-6.4s5.8-10.4,5.8-18.3c0-3.5-0.3-6.7-1-9.8c-0.7-3-1.8-5.7-3.4-7.9
					c-1.6-2.2-3.6-3.9-6-5.2c-2.5-1.3-5.4-1.9-8.9-1.9c-3.3,0-6.3,0.6-9.1,1.7c-2.8,1.1-4.9,2.3-6.4,3.5V313.1z"/>
				<path style="fill:#17191A;" d="M852.3,286.4c2.6,2,5.4,4.5,8.3,7.4c2.9,2.9,5.8,6.1,8.6,9.6c2.8,3.4,5.5,6.9,8,10.4
					c2.5,3.5,4.6,6.8,6.4,9.8h-14.2c-1.8-3-3.9-6.1-6.3-9.3c-2.4-3.2-4.9-6.2-7.5-9.1c-2.6-2.9-5.2-5.6-7.9-8
					c-2.7-2.4-5.2-4.5-7.7-6.1v32.5h-12.1v-98.8l12.1-2.1v61.6c2.1-2.1,4.4-4.4,6.9-6.9c2.5-2.5,5-5.1,7.4-7.7
					c2.4-2.6,4.7-5.1,6.9-7.5c2.2-2.4,4-4.5,5.6-6.3h14.2c-2,2.2-4.2,4.5-6.5,7.1c-2.3,2.6-4.8,5.2-7.3,7.9c-2.5,2.6-5,5.3-7.6,7.9
					C856.9,281.6,854.5,284.1,852.3,286.4z"/>
				<path style="fill:#17191A;" d="M901.7,243.8c-2.2,0-4-0.7-5.5-2.1c-1.5-1.4-2.3-3.4-2.3-5.8c0-2.4,0.8-4.4,2.3-5.8
					c1.5-1.4,3.4-2.1,5.5-2.1s4,0.7,5.5,2.1c1.5,1.4,2.3,3.4,2.3,5.8c0,2.4-0.8,4.4-2.3,5.8C905.7,243.1,903.8,243.8,901.7,243.8z
					 M907.8,323.6h-12.1V256h12.1V323.6z"/>
				<path style="fill:#17191A;" d="M928.6,258c2.8-0.7,6.5-1.4,11.1-2.2c4.6-0.8,9.9-1.2,15.9-1.2c5.4,0,9.8,0.8,13.4,2.3
					c3.6,1.5,6.4,3.6,8.5,6.4c2.1,2.7,3.6,6,4.5,9.8c0.9,3.8,1.3,8,1.3,12.6v38h-12.1v-35.4c0-4.2-0.3-7.7-0.8-10.7
					c-0.6-2.9-1.5-5.3-2.8-7.2c-1.3-1.8-3-3.1-5.2-4c-2.2-0.8-4.9-1.2-8.1-1.2c-1.3,0-2.6,0-4,0.1c-1.4,0.1-2.7,0.2-4,0.3
					c-1.3,0.1-2.4,0.3-3.4,0.5c-1,0.2-1.7,0.3-2.1,0.4v57.1h-12.1V258z"/>
				<path style="fill:#17191A;" d="M1045.6,316.9c-1,0.7-3.1,1.6-6,2.7c-3,1.1-6.5,1.6-10.5,1.6c-4.1,0-7.9-0.7-11.5-2
					s-6.7-3.3-9.4-6c-2.7-2.7-4.8-6.1-6.4-10.2c-1.6-4.1-2.3-8.9-2.3-14.6c0-4.9,0.7-9.5,2.2-13.6c1.5-4.1,3.6-7.7,6.4-10.7
					c2.8-3,6.3-5.3,10.3-7c4.1-1.7,8.7-2.5,13.8-2.5c5.6,0,10.6,0.4,14.8,1.2c4.2,0.8,7.7,1.6,10.6,2.3v60.3
					c0,10.4-2.7,17.9-8.1,22.6c-5.4,4.7-13.5,7-24.4,7c-4.2,0-8.3-0.3-12-1c-3.8-0.7-7-1.5-9.8-2.5l2.2-10.5c2.4,1,5.4,1.8,8.9,2.5
					c3.5,0.7,7.2,1.1,11,1.1c7.2,0,12.4-1.4,15.5-4.3c3.2-2.9,4.7-7.4,4.7-13.7V316.9z M1045.4,266.7c-1.2-0.3-2.8-0.7-4.9-1
					c-2-0.3-4.8-0.5-8.3-0.5c-6.5,0-11.5,2.1-15,6.4c-3.5,4.2-5.3,9.9-5.3,16.9c0,3.9,0.5,7.2,1.5,10c1,2.8,2.3,5.1,4,6.9
					c1.7,1.8,3.6,3.2,5.9,4c2.2,0.9,4.5,1.3,6.8,1.3c3.2,0,6.2-0.5,8.8-1.4c2.7-0.9,4.8-2,6.4-3.2V266.7z"/>
			</g>
		</g>
		<g>
			<g>
				<path style="fill:#17181A;" d="M604,366.9c-2.1,0-3.9-0.3-5.5-1c-1.6-0.7-2.9-1.6-4-2.8c-1.1-1.2-1.9-2.6-2.4-4.3
					c-0.5-1.7-0.8-3.5-0.8-5.5s0.3-3.8,0.9-5.5c0.6-1.7,1.4-3.1,2.5-4.3c1.1-1.2,2.4-2.2,3.9-2.8c1.5-0.7,3.3-1,5.2-1
					c1.2,0,2.3,0.1,3.5,0.3c1.2,0.2,2.3,0.5,3.4,0.9l-1.1,3.9c-0.7-0.3-1.5-0.6-2.4-0.8c-0.9-0.2-1.9-0.3-2.9-0.3
					c-2.6,0-4.6,0.8-6,2.5c-1.4,1.6-2.1,4-2.1,7.1c0,1.4,0.2,2.7,0.5,3.9c0.3,1.2,0.8,2.2,1.5,3c0.7,0.8,1.6,1.5,2.6,1.9
					c1.1,0.5,2.4,0.7,3.9,0.7c1.2,0,2.4-0.1,3.4-0.3c1-0.2,1.8-0.5,2.4-0.8l0.6,3.9c-0.3,0.2-0.6,0.3-1.1,0.5
					c-0.5,0.1-1.1,0.3-1.7,0.4c-0.6,0.1-1.3,0.2-2,0.3C605.3,366.8,604.6,366.9,604,366.9z"/>
				<path style="fill:#17181A;" d="M630.5,339.7c0.4,0,0.9,0,1.4,0.1c0.5,0,1,0.1,1.5,0.2c0.5,0.1,1,0.2,1.4,0.3
					c0.4,0.1,0.7,0.2,0.9,0.2l-0.8,4.1c-0.4-0.1-1-0.3-1.8-0.5c-0.8-0.2-1.9-0.3-3.3-0.3c-0.9,0-1.7,0.1-2.6,0.3
					c-0.9,0.2-1.4,0.3-1.7,0.4v21.8h-4.6v-24.9c1.1-0.4,2.5-0.8,4.1-1.1C626.7,339.9,628.5,339.7,630.5,339.7z"/>
				<path style="fill:#17181A;" d="M643.8,353.3c0-2.3,0.3-4.3,1-6c0.7-1.7,1.6-3.1,2.7-4.3c1.1-1.1,2.4-2,3.8-2.6
					c1.4-0.6,2.9-0.8,4.4-0.8c3.5,0,6.2,1.1,8.1,3.3c1.9,2.2,2.8,5.5,2.8,10c0,0.2,0,0.5,0,0.8s0,0.6,0,0.9h-17.8
					c0.2,2.7,1,4.8,2.4,6.2c1.4,1.4,3.5,2.1,6.4,2.1c1.6,0,3-0.1,4.1-0.4c1.1-0.3,2-0.6,2.5-0.8l0.7,3.9c-0.6,0.3-1.6,0.6-3,0.9
					c-1.4,0.3-3,0.5-4.8,0.5c-2.3,0-4.2-0.3-5.9-1c-1.6-0.7-3-1.6-4.1-2.8c-1.1-1.2-1.9-2.6-2.4-4.3
					C644,357.1,643.8,355.3,643.8,353.3z M661.6,350.8c0-2.1-0.5-3.8-1.6-5.2c-1.1-1.3-2.6-2-4.5-2c-1.1,0-2,0.2-2.8,0.6
					c-0.8,0.4-1.5,1-2.1,1.6c-0.6,0.7-1,1.4-1.3,2.3c-0.3,0.9-0.5,1.8-0.6,2.7H661.6z"/>
				<path style="fill:#17181A;" d="M686.6,339.6c1.9,0,3.4,0.2,4.7,0.7c1.3,0.5,2.3,1.2,3.1,2.1c0.8,0.9,1.3,1.9,1.7,3.2
					c0.3,1.2,0.5,2.6,0.5,4v16.3c-0.4,0.1-1,0.2-1.7,0.3c-0.7,0.1-1.5,0.2-2.4,0.3c-0.9,0.1-1.9,0.2-2.9,0.3c-1,0.1-2.1,0.1-3.1,0.1
					c-1.5,0-2.8-0.1-4-0.4c-1.2-0.3-2.3-0.8-3.2-1.4c-0.9-0.6-1.6-1.5-2.1-2.6s-0.8-2.3-0.8-3.8c0-1.4,0.3-2.7,0.9-3.7
					c0.6-1,1.4-1.9,2.4-2.5c1-0.6,2.2-1.1,3.5-1.4c1.3-0.3,2.7-0.5,4.2-0.5c0.5,0,0.9,0,1.4,0.1c0.5,0,1,0.1,1.4,0.2
					c0.4,0.1,0.8,0.2,1.2,0.2c0.3,0.1,0.6,0.1,0.7,0.2v-1.3c0-0.8-0.1-1.5-0.3-2.3c-0.2-0.8-0.5-1.4-0.9-2c-0.4-0.6-1-1.1-1.8-1.4
					s-1.7-0.5-2.9-0.5c-1.5,0-2.9,0.1-4,0.3c-1.1,0.2-2,0.4-2.6,0.7l-0.5-3.8c0.6-0.3,1.6-0.5,3-0.8S684.9,339.6,686.6,339.6z
					 M687,362.9c1.1,0,2.1,0,2.9-0.1c0.9,0,1.6-0.1,2.1-0.3v-7.8c-0.3-0.2-0.9-0.3-1.6-0.4s-1.7-0.2-2.7-0.2c-0.7,0-1.4,0.1-2.2,0.2
					c-0.8,0.1-1.5,0.3-2.1,0.6s-1.2,0.8-1.6,1.3c-0.4,0.5-0.6,1.3-0.6,2.2c0,1.7,0.5,2.8,1.6,3.5C683.7,362.6,685.1,362.9,687,362.9
					z"/>
				<path style="fill:#17181A;" d="M713.6,340.3h9.8v3.9h-9.8v12c0,1.3,0.1,2.4,0.3,3.2s0.5,1.5,0.9,2c0.4,0.5,0.9,0.8,1.5,1
					c0.6,0.2,1.3,0.3,2.1,0.3c1.4,0,2.5-0.2,3.4-0.5c0.8-0.3,1.4-0.5,1.8-0.7l0.9,3.9c-0.5,0.2-1.3,0.5-2.5,0.9
					c-1.2,0.3-2.5,0.5-4,0.5c-1.8,0-3.2-0.2-4.4-0.7c-1.1-0.5-2.1-1.1-2.8-2c-0.7-0.9-1.2-2-1.5-3.3s-0.4-2.8-0.4-4.6V333l4.7-0.8
					V340.3z"/>
				<path style="fill:#17181A;" d="M736.7,335.6c-0.8,0-1.5-0.3-2.1-0.8s-0.9-1.3-0.9-2.2s0.3-1.7,0.9-2.2c0.6-0.6,1.3-0.8,2.1-0.8
					s1.5,0.3,2.1,0.8c0.6,0.5,0.9,1.3,0.9,2.2s-0.3,1.7-0.9,2.2S737.5,335.6,736.7,335.6z M739,366.3h-4.7v-26h4.7V366.3z"/>
				<path style="fill:#17181A;" d="M772.3,340.3c-1.3,4.9-2.8,9.5-4.6,14s-3.4,8.5-5.1,12h-4.2c-1.6-3.5-3.3-7.5-5.1-12
					s-3.3-9.1-4.6-14h5c0.4,1.6,0.9,3.4,1.4,5.2c0.5,1.8,1.1,3.7,1.8,5.5c0.6,1.8,1.2,3.6,1.9,5.3c0.6,1.7,1.2,3.2,1.8,4.5
					c0.6-1.3,1.2-2.8,1.8-4.5c0.6-1.7,1.3-3.5,1.9-5.3c0.6-1.8,1.2-3.7,1.8-5.5s1-3.6,1.4-5.2H772.3z"/>
				<path style="fill:#17181A;" d="M780,353.3c0-2.3,0.3-4.3,1-6s1.6-3.1,2.7-4.3s2.4-2,3.8-2.6c1.4-0.6,2.9-0.8,4.4-0.8
					c3.5,0,6.2,1.1,8,3.3c1.9,2.2,2.8,5.5,2.8,10c0,0.2,0,0.5,0,0.8s0,0.6,0,0.9h-17.8c0.2,2.7,1,4.8,2.3,6.2
					c1.4,1.4,3.5,2.1,6.4,2.1c1.6,0,3-0.1,4.1-0.4c1.1-0.3,2-0.6,2.5-0.8l0.7,3.9c-0.6,0.3-1.6,0.6-3,0.9c-1.4,0.3-3,0.5-4.8,0.5
					c-2.3,0-4.2-0.3-5.9-1c-1.7-0.7-3-1.6-4.1-2.8c-1.1-1.2-1.9-2.6-2.4-4.3C780.2,357.1,780,355.3,780,353.3z M797.8,350.8
					c0-2.1-0.5-3.8-1.6-5.2c-1.1-1.3-2.6-2-4.5-2c-1.1,0-2,0.2-2.8,0.6c-0.8,0.4-1.5,1-2.1,1.6c-0.6,0.7-1,1.4-1.3,2.3
					c-0.3,0.9-0.5,1.8-0.6,2.7H797.8z"/>
				<path style="fill:#17181A;" d="M837,362.9c1.9,0,3.3-0.3,4.2-0.8c0.9-0.5,1.4-1.3,1.4-2.4c0-1.1-0.5-2-1.4-2.7
					c-0.9-0.7-2.4-1.4-4.4-2.3c-1-0.4-2-0.8-2.9-1.2c-0.9-0.4-1.7-0.9-2.4-1.5c-0.7-0.6-1.2-1.3-1.6-2.1c-0.4-0.8-0.6-1.8-0.6-2.9
					c0-2.3,0.8-4.1,2.5-5.5s4-2,7-2c0.7,0,1.5,0,2.2,0.1c0.7,0.1,1.4,0.2,2,0.3c0.6,0.1,1.2,0.2,1.7,0.4c0.5,0.1,0.9,0.3,1.1,0.3
					l-0.8,4c-0.5-0.3-1.3-0.5-2.4-0.8c-1.1-0.3-2.3-0.4-3.8-0.4c-1.3,0-2.4,0.3-3.4,0.8c-1,0.5-1.5,1.3-1.5,2.4
					c0,0.6,0.1,1.1,0.3,1.5c0.2,0.4,0.5,0.8,1,1.2s1,0.7,1.7,1s1.5,0.6,2.4,0.9c1.2,0.5,2.3,0.9,3.3,1.4c1,0.5,1.8,1,2.5,1.6
					c0.7,0.6,1.2,1.3,1.6,2.2c0.4,0.9,0.6,1.9,0.6,3.1c0,2.4-0.9,4.2-2.7,5.5s-4.3,1.8-7.6,1.8c-2.3,0-4.1-0.2-5.4-0.6
					s-2.2-0.7-2.7-0.9l0.9-4c0.5,0.2,1.4,0.5,2.5,0.9C833.5,362.7,835,362.9,837,362.9z"/>
				<path style="fill:#17181A;" d="M862.6,340.3h9.8v3.9h-9.8v12c0,1.3,0.1,2.4,0.3,3.2s0.5,1.5,0.9,2c0.4,0.5,0.9,0.8,1.5,1
					c0.6,0.2,1.3,0.3,2.1,0.3c1.4,0,2.5-0.2,3.4-0.5c0.8-0.3,1.4-0.5,1.8-0.7l0.9,3.9c-0.5,0.2-1.3,0.5-2.5,0.9
					c-1.2,0.3-2.5,0.5-4,0.5c-1.8,0-3.2-0.2-4.4-0.7c-1.1-0.5-2.1-1.1-2.8-2c-0.7-0.9-1.2-2-1.5-3.3s-0.4-2.8-0.4-4.6V333l4.7-0.8
					V340.3z"/>
				<path style="fill:#17181A;" d="M904,365.5c-1.1,0.3-2.5,0.5-4.2,0.8s-3.8,0.4-6.1,0.4c-2,0-3.7-0.3-5-0.9
					c-1.4-0.6-2.5-1.4-3.3-2.5c-0.8-1.1-1.4-2.3-1.8-3.8c-0.4-1.4-0.5-3.1-0.5-4.8v-14.6h4.7v13.6c0,3.2,0.5,5.4,1.5,6.8s2.7,2,5,2
					c0.5,0,1,0,1.5,0s1-0.1,1.5-0.1c0.5-0.1,0.9-0.1,1.3-0.2c0.4-0.1,0.7-0.1,0.8-0.2v-21.9h4.7V365.5z"/>
				<path style="fill:#17181A;" d="M933.8,328.3l4.7-0.8v38.1c-1.1,0.3-2.4,0.6-4.1,0.9c-1.7,0.3-3.6,0.4-5.8,0.4
					c-2,0-3.8-0.3-5.4-0.9c-1.6-0.6-3-1.5-4.1-2.7c-1.1-1.2-2-2.6-2.6-4.3c-0.6-1.7-0.9-3.6-0.9-5.7c0-2,0.3-3.8,0.8-5.5
					c0.5-1.7,1.3-3.1,2.3-4.3c1-1.2,2.2-2.1,3.7-2.8c1.4-0.7,3.1-1,5-1c1.5,0,2.8,0.2,4,0.6c1.2,0.4,2,0.8,2.6,1.2V328.3z
					 M933.8,345.8c-0.6-0.5-1.4-0.9-2.5-1.3s-2.2-0.7-3.5-0.7c-1.3,0-2.5,0.2-3.4,0.7c-1,0.5-1.7,1.2-2.3,2c-0.6,0.8-1,1.9-1.3,3
					s-0.4,2.4-0.4,3.8c0,3,0.8,5.4,2.3,7c1.5,1.6,3.5,2.5,6,2.5c1.3,0,2.3-0.1,3.2-0.2c0.8-0.1,1.5-0.2,2-0.4V345.8z"/>
				<path style="fill:#17181A;" d="M953.8,335.6c-0.8,0-1.5-0.3-2.1-0.8s-0.9-1.3-0.9-2.2s0.3-1.7,0.9-2.2c0.6-0.6,1.3-0.8,2.1-0.8
					s1.5,0.3,2.1,0.8c0.6,0.5,0.9,1.3,0.9,2.2s-0.3,1.7-0.9,2.2S954.6,335.6,953.8,335.6z M956.1,366.3h-4.7v-26h4.7V366.3z"/>
				<path style="fill:#17181A;" d="M992.1,353.3c0,2.1-0.3,3.9-0.9,5.6c-0.6,1.7-1.4,3.1-2.5,4.3c-1.1,1.2-2.4,2.1-3.9,2.8
					c-1.5,0.7-3.1,1-4.9,1c-1.8,0-3.4-0.3-4.9-1c-1.5-0.6-2.8-1.6-3.9-2.8c-1.1-1.2-1.9-2.6-2.5-4.3c-0.6-1.7-0.9-3.5-0.9-5.6
					c0-2,0.3-3.9,0.9-5.6c0.6-1.7,1.4-3.1,2.5-4.3s2.4-2.1,3.9-2.8s3.1-1,4.9-1c1.8,0,3.4,0.3,4.9,1s2.8,1.6,3.9,2.8
					c1.1,1.2,1.9,2.6,2.5,4.3C991.8,349.4,992.1,351.2,992.1,353.3z M987.2,353.3c0-2.9-0.7-5.3-2-7c-1.3-1.7-3.1-2.6-5.4-2.6
					c-2.3,0-4.1,0.9-5.4,2.6c-1.3,1.7-2,4-2,7s0.7,5.3,2,7c1.3,1.7,3.1,2.6,5.4,2.6c2.3,0,4.1-0.9,5.4-2.6
					C986.6,358.5,987.2,356.2,987.2,353.3z"/>
			</g>
			<g>
				<path style="fill:#17181A;" d="M632.8,323.6c-2.4-6.2-5-13.4-7.7-21.4c-2.7-8-5.2-16.4-7.5-25c-2.3,8.7-4.7,17-7.4,25
					c-2.7,8-5.2,15.1-7.7,21.4H592c-4-8.9-7.9-19.1-11.7-30.5c-3.8-11.4-7.4-23.8-10.8-37h13c0.9,4.1,1.9,8.5,3.1,13.3
					c1.2,4.8,2.5,9.5,3.8,14.3c1.3,4.8,2.8,9.4,4.2,13.8c1.5,4.4,2.9,8.3,4.2,11.6c1.5-4.1,2.9-8.4,4.4-12.9
					c1.4-4.5,2.8-9.1,4.1-13.8c1.3-4.6,2.5-9.2,3.7-13.6c1.2-4.5,2.2-8.6,3.1-12.5h10c0.8,3.9,1.7,8.1,2.9,12.5
					c1.1,4.5,2.3,9,3.6,13.6c1.3,4.6,2.7,9.2,4.1,13.8c1.4,4.5,2.9,8.9,4.4,12.9c1.3-3.3,2.7-7.1,4.1-11.6c1.4-4.4,2.8-9,4.2-13.8
					c1.4-4.8,2.7-9.5,3.9-14.3c1.2-4.8,2.3-9.2,3.1-13.3h12.5c-3.4,13.3-7,25.6-10.8,37c-3.8,11.4-7.7,21.6-11.7,30.5H632.8z"/>
				<path style="fill:#17181A;" d="M674.8,290c0-6,0.9-11.2,2.6-15.7c1.7-4.5,4-8.2,6.9-11.1c2.9-2.9,6.2-5.2,9.9-6.6
					c3.7-1.5,7.5-2.2,11.4-2.2c9.1,0,16.1,2.8,20.9,8.5c4.9,5.7,7.3,14.3,7.3,25.9c0,0.5,0,1.2,0,2c0,0.8,0,1.6-0.1,2.3h-46.3
					c0.5,7,2.6,12.3,6.1,16c3.6,3.6,9.1,5.5,16.6,5.5c4.2,0,7.8-0.4,10.7-1.1c2.9-0.7,5.1-1.5,6.6-2.1l1.7,10.1
					c-1.5,0.8-4.1,1.6-7.7,2.5s-7.9,1.3-12.5,1.3c-5.9,0-11-0.9-15.3-2.7c-4.3-1.8-7.8-4.2-10.6-7.3c-2.8-3.1-4.8-6.8-6.2-11.1
					C675.5,299.8,674.8,295.1,674.8,290z M721.2,283.3c0.1-5.5-1.3-9.9-4.1-13.5c-2.8-3.5-6.7-5.3-11.6-5.3c-2.8,0-5.2,0.5-7.3,1.6
					c-2.1,1.1-3.9,2.5-5.4,4.2c-1.5,1.7-2.6,3.7-3.4,6c-0.8,2.3-1.4,4.6-1.6,6.9H721.2z"/>
				<path style="fill:#17181A;" d="M763.3,259c1.5-1,3.7-1.9,6.7-3s6.4-1.6,10.3-1.6c4.9,0,9.2,0.9,12.9,2.6c3.8,1.7,7,4.2,9.6,7.3
					c2.6,3.1,4.6,6.8,5.9,11.2c1.3,4.3,2,9.1,2,14.3c0,5.5-0.8,10.4-2.4,14.8c-1.6,4.4-3.9,8.1-6.8,11.1c-2.9,3-6.5,5.4-10.7,7
					s-8.8,2.5-14,2.5c-5.6,0-10.6-0.4-14.9-1.2c-4.3-0.8-7.9-1.6-10.7-2.3v-96.8l12.1-2.1V259z M763.3,313.1c1.2,0.3,2.9,0.7,5.1,1
					c2.2,0.3,5,0.5,8.3,0.5c6.5,0,11.7-2.1,15.6-6.4s5.8-10.4,5.8-18.3c0-3.5-0.3-6.7-1-9.8c-0.7-3-1.8-5.7-3.4-7.9
					c-1.6-2.2-3.6-3.9-6-5.2c-2.5-1.3-5.4-1.9-8.9-1.9c-3.3,0-6.3,0.6-9.1,1.7c-2.8,1.1-4.9,2.3-6.4,3.5V313.1z"/>
				<path style="fill:#17181A;" d="M852.3,286.4c2.6,2,5.4,4.5,8.3,7.4c2.9,2.9,5.8,6.1,8.6,9.6c2.8,3.4,5.5,6.9,8,10.4
					c2.5,3.5,4.6,6.8,6.4,9.8h-14.2c-1.8-3-3.9-6.1-6.3-9.3c-2.4-3.2-4.9-6.2-7.5-9.1c-2.6-2.9-5.2-5.6-7.9-8
					c-2.7-2.4-5.2-4.5-7.7-6.1v32.5h-12.1v-98.8l12.1-2.1v61.6c2.1-2.1,4.4-4.4,6.9-6.9c2.5-2.5,5-5.1,7.4-7.7
					c2.4-2.6,4.7-5.1,6.9-7.5c2.2-2.4,4-4.5,5.6-6.3h14.2c-2,2.2-4.2,4.5-6.5,7.1c-2.3,2.6-4.8,5.2-7.3,7.9c-2.5,2.6-5,5.3-7.6,7.9
					C856.9,281.6,854.5,284.1,852.3,286.4z"/>
				<path style="fill:#17181A;" d="M901.7,243.8c-2.2,0-4-0.7-5.5-2.1c-1.5-1.4-2.3-3.4-2.3-5.8c0-2.4,0.8-4.4,2.3-5.8
					c1.5-1.4,3.4-2.1,5.5-2.1s4,0.7,5.5,2.1c1.5,1.4,2.3,3.4,2.3,5.8c0,2.4-0.8,4.4-2.3,5.8C905.7,243.1,903.8,243.8,901.7,243.8z
					 M907.8,323.6h-12.1V256h12.1V323.6z"/>
				<path style="fill:#17181A;" d="M928.6,258c2.8-0.7,6.5-1.4,11.1-2.2c4.6-0.8,9.9-1.2,15.9-1.2c5.4,0,9.8,0.8,13.4,2.3
					c3.6,1.5,6.4,3.6,8.5,6.4c2.1,2.7,3.6,6,4.5,9.8c0.9,3.8,1.3,8,1.3,12.6v38h-12.1v-35.4c0-4.2-0.3-7.7-0.8-10.7
					c-0.6-2.9-1.5-5.3-2.8-7.2c-1.3-1.8-3-3.1-5.2-4c-2.2-0.8-4.9-1.2-8.1-1.2c-1.3,0-2.6,0-4,0.1c-1.4,0.1-2.7,0.2-4,0.3
					c-1.3,0.1-2.4,0.3-3.4,0.5c-1,0.2-1.7,0.3-2.1,0.4v57.1h-12.1V258z"/>
				<path style="fill:#17181A;" d="M1045.6,316.9c-1,0.7-3.1,1.6-6,2.7c-3,1.1-6.5,1.6-10.5,1.6c-4.1,0-7.9-0.7-11.5-2
					s-6.7-3.3-9.4-6c-2.7-2.7-4.8-6.1-6.4-10.2c-1.6-4.1-2.3-8.9-2.3-14.6c0-4.9,0.7-9.5,2.2-13.6c1.5-4.1,3.6-7.7,6.4-10.7
					c2.8-3,6.3-5.3,10.3-7c4.1-1.7,8.7-2.5,13.8-2.5c5.6,0,10.6,0.4,14.8,1.2c4.2,0.8,7.7,1.6,10.6,2.3v60.3
					c0,10.4-2.7,17.9-8.1,22.6c-5.4,4.7-13.5,7-24.4,7c-4.2,0-8.3-0.3-12-1c-3.8-0.7-7-1.5-9.8-2.5l2.2-10.5c2.4,1,5.4,1.8,8.9,2.5
					c3.5,0.7,7.2,1.1,11,1.1c7.2,0,12.4-1.4,15.5-4.3c3.2-2.9,4.7-7.4,4.7-13.7V316.9z M1045.4,266.7c-1.2-0.3-2.8-0.7-4.9-1
					c-2-0.3-4.8-0.5-8.3-0.5c-6.5,0-11.5,2.1-15,6.4c-3.5,4.2-5.3,9.9-5.3,16.9c0,3.9,0.5,7.2,1.5,10c1,2.8,2.3,5.1,4,6.9
					c1.7,1.8,3.6,3.2,5.9,4c2.2,0.9,4.5,1.3,6.8,1.3c3.2,0,6.2-0.5,8.8-1.4c2.7-0.9,4.8-2,6.4-3.2V266.7z"/>
			</g>
		</g>
	</g>
</g>
</svg>
