<?xml version="1.0" encoding="utf-8"?>
<!-- Generator: Adobe Illustrator 20.1.0, SVG Export Plug-In . SVG Version: 6.00 Build 0)  -->
<svg version="1.1" id="support_svg" xmlns="http://www.w3.org/2000/svg" xmlns:xlink="http://www.w3.org/1999/xlink" x="0px"
	 y="0px" viewBox="0 0 932.2 932.2" style="enable-background:new 0 0 932.2 932.2;" xml:space="preserve">
<g>
	<path style="fill:#8C8C8C;" d="M156.7,432V168.4h63.7c22.9,0,39.6,6.4,50.1,19.2c10.4,12.8,15.7,31.3,15.7,55.5
		c0,11.9-1.1,22.3-3.4,31.1c-2.3,8.8-5.5,16-9.6,21.8s-9.4,10.3-15.8,13.8c-6.4,3.5-13.4,5.9-20.9,7.3c-7.5,1.4-16.2,2.2-26.1,2.3
		V432H156.7z M210.5,281.6c2.8,0,5.3-0.2,7.5-0.5c2.2-0.3,4.1-0.7,5.8-1.2c1.7-0.4,3.1-1.2,4.4-2.4c1.3-1.2,2.3-2.2,3.1-3.1
		c0.8-0.9,1.5-2.3,2.1-4.3c0.6-2,1-3.6,1.3-4.9c0.3-1.3,0.5-3.3,0.7-6.2c0.1-2.8,0.2-5.1,0.2-6.8c0-1.7,0-4.4,0-8c0-1,0-1.7,0-2.2
		c0-3.8,0-6.7-0.1-8.6c-0.1-2-0.2-4.4-0.5-7.5c-0.3-3-0.8-5.3-1.4-6.8c-0.6-1.5-1.6-3.2-2.8-5.2c-1.2-2-2.7-3.4-4.5-4.2
		s-4-1.7-6.7-2.3c-2.7-0.7-5.8-1-9.3-1V281.6z"/>
	<path style="fill:#8C8C8C;" d="M297.3,356.6l54.1-10.4c0,5.4,0.1,10.1,0.3,14.2c0.2,4.1,0.7,8.6,1.5,13.4c0.8,4.8,2,8.8,3.4,11.9
		c1.4,3.1,3.4,5.7,6,7.8c2.6,2.1,5.6,3.1,9.2,3.1c10.5,0,15.8-6.7,15.8-20.2c0-18.5-10.4-36.8-31.2-55.1l-16.6-14.1
		c-5.3-4.4-9.5-8.1-12.6-11c-3.1-2.9-6.8-6.9-11.1-11.9s-7.6-9.8-10-14.4c-2.4-4.6-4.4-10.2-6.2-16.8c-1.7-6.5-2.6-13.5-2.6-20.8
		c0-21.4,6.8-38.3,20.4-50.8c13.6-12.5,31.6-18.7,54.1-18.7c18.7,0,34.5,6.6,47.6,19.9c13.1,13.3,19.6,29.3,19.6,48l-0.1,1.9
		c0,1.3,0,2.7,0,4.4l-55.1,7.6c0-1.1,0.1-2.8,0.2-5.1c0.1-2.3,0.2-4.2,0.2-5.6c0-3.5-0.2-6.9-0.7-10.1c-0.5-3.2-1.3-6.4-2.4-9.7
		c-1.1-3.2-2.9-5.8-5.2-7.7s-5.2-2.9-8.5-2.9c-5.9,0-10.3,2.3-13.2,6.9c-2.9,4.6-4.4,10-4.4,16.3c0,5.5,0.9,10.6,2.6,15.4
		c1.7,4.8,4.3,9.3,7.8,13.4c3.5,4.2,6.7,7.6,9.6,10.3c2.9,2.7,6.8,6.1,11.7,10c4.9,4,8.3,6.9,10.4,8.7c7.5,6.6,13.9,12.9,19,18.7
		c5.2,5.8,10.1,12.4,14.6,19.7c4.6,7.3,8,15.2,10.3,23.7c2.3,8.5,3.4,17.7,3.4,27.5c0,18.5-6.6,33.6-19.8,45.3
		c-13.2,11.8-29.2,17.7-48,17.7c-12.2,0-23-2.2-32.5-6.7c-9.5-4.5-17.1-10.6-22.9-18.3c-5.8-7.7-10.3-16.3-13.4-25.6
		C299.6,377.4,297.8,367.3,297.3,356.6z"/>
	<path style="fill:#8C8C8C;" d="M460.7,432V168.4h55.1c17.6,0,32.1,1.6,43.4,4.8c11.4,3.2,20.3,8.4,26.8,15.7
		c6.5,7.3,11,16,13.5,26.1c2.5,10.2,3.7,23.1,3.7,38.8v86.4c0,9.4-0.3,17.6-0.9,24.5c-0.6,7-1.7,13.8-3.3,20.5
		c-1.6,6.7-3.8,12.4-6.6,17c-2.8,4.6-6.4,9-10.8,13c-4.4,4-9.7,7.2-15.9,9.5c-6.2,2.3-13.5,4.2-21.8,5.4c-8.3,1.3-17.9,1.9-28.8,1.9
		H460.7z M516,394.7c5.1,0,9.1-0.1,12-0.2s5.9-0.5,8.8-1.1s5.1-1.4,6.4-2.4c1.4-1,2.6-2.5,3.8-4.5c1.2-2,1.9-4.3,2.3-7
		c0.3-2.7,0.5-6,0.5-10V227.6c0-8.7-2.6-14.5-7.8-17.3c-5.2-2.8-13.9-4.3-26.1-4.4V394.7z"/>
</g>
<path style="fill:#FFFFFF;" d="M785.4,235.9c0,11.6-1.8,23.1-5.5,34.5c-3.7,11.4-8.9,22.3-15.6,32.8c-6.7,10.5-13.2,19.8-19.5,27.8
	c-6.3,8-13.7,17.1-22.4,27.2c-8.7,10.1-15,17.8-19,23.2h82V432H645.1v-45.3l64.2-91.8c3.7-5.4,6.8-10,9.2-13.8
	c2.4-3.8,5.1-8.4,7.8-13.8c2.8-5.4,4.9-10.7,6.3-16c1.4-5.3,2.1-10.4,2.1-15.5c0-3-0.4-6.1-1.1-9.2c-0.7-3.1-1.8-6.2-3.3-9.1
	s-3.5-5.3-6.1-7.1c-2.6-1.8-5.5-2.7-8.9-2.7c-2.7,0-5.2,0.6-7.4,1.9c-2.2,1.3-4,3-5.3,5.2c-1.4,2.2-2.5,4.7-3.5,7.5
	c-1,2.8-1.7,5.8-2.1,9c-0.4,3.2-0.7,6.4-1,9.6s-0.4,6.3-0.4,9.2c0,2.9,0.1,5.5,0.1,8c0,1.7,0,2.8,0,3.5h-50.5v-16.6
	c0-9.7,0.8-18.5,2.3-26.6c1.6-8.1,4.1-15.6,7.6-22.5c3.5-6.9,8-12.8,13.3-17.6c5.4-4.8,12-8.5,19.9-11.2c7.9-2.7,16.9-4,27-4
	c22.3,0,39.5,6.5,51.7,19.6C779.3,195.8,785.4,213.5,785.4,235.9z"/>
<g>
	<path style="fill:#5B5B5B;" d="M156.7,710.8V447.2H210v108.1h38.2V447.2h53.6v263.7h-53.6V593.2H210v117.6H156.7z"/>
	<path style="fill:#5B5B5B;" d="M358.3,710.8V487h-38.7v-39.8h129.9V487h-37.9v223.8H358.3z"/>
	<path style="fill:#5B5B5B;" d="M467.3,710.8V447.2h63.9L559.3,623l30.3-175.8h61.7v263.7H612l-1.2-185.4c-2.9,19-8.1,50-15.4,92.7
		s-12.5,73.7-15.4,92.7h-39.8l-32.4-186.6l-1.2,186.6H467.3z"/>
	<path style="fill:#5B5B5B;" d="M682.6,710.8V447.2h53.3v227.1h52.4v36.6H682.6z"/>
</g>
</svg>
